<?xml version="1.0" encoding="UTF-8" standalone="no"?>
<svg xmlns="http://www.w3.org/2000/svg" width="484.414" height="480.663" xmlns:dc="http://purl.org/dc/elements/1.1/" xmlns:cc="http://creativecommons.org/ns#" xmlns:rdf="http://www.w3.org/1999/02/22-rdf-syntax-ns#" version="1">
  <metadata>
    <rdf:RDF>
      <cc:Work>
        <dc:format>
          image/svg+xml
        </dc:format>
        <dc:type rdf:resource="http://purl.org/dc/dcmitype/StillImage"/>
      </cc:Work>
    </rdf:RDF>
  </metadata>
  <path fill="#bf1f32" fill-rule="evenodd" d="M148.568 396.207c-3.86-2.886-7.973-5.483-12.23-7.504-4.69-.613-9.67 0-12.267 4.113-2.74 3.067-2.16 7.9-.79 11.365 1.05 2.2-5.01 3.58-5.48 5.45-2.41 3.07 0 8.16 2.17 9.96 2.35 1.91 4.44 3.29 6.71 4.91 3.54 2.92 7.65 4.26 11.66 5.95.58.18 1.66.4 2.2-.32 1.34-1.84.11-1.37-1.15-3.17-1.88-3.14 1.95-8.08 3.07-10.57 2.28-4.58 3.57-9.13 8.23-11.69 2.02-.9 5.3.72 6.28-1.69-1.84-3.32-5.77-4.04-8.37-6.78zm-17.642 24.245c-2.417 1.154-4.473-2.237-6.35-3.32-.072-1.226.217-3.102.722-4.257.902-.72 3.14-3.066 4.293-2.56.98 1.334 2.93 2.777 4.48 3.498.33 1.768-2.34 5.196-3.14 6.64zm7.65-15.225c-.542.866-1.59 3.608-2.743 3.97-1.876-.615-3.644-2.202-5.16-3.862-3.138-3.39.362-6.35.903-8.478 2.814-1.948 8.262-1.804 10.75.036 1.77 2.958-3.066 5.917-3.75 8.334m81.246-156.325c-2.165.83-.18 4.185-3.86 4.51-2.887.252-6.927-2.382-8.55-5.232 1.298-1.55 5.158-2.237 5.05-7.18-.072-4.4-1.118-7.034-6.386-8.694-3.643-1.118-8.01-.397-12.014-.65-1.55.253-3.932-.36-4.906 1.083-.54 1.22 1.37 1.22 2.056 2.27.902 5.3.036 14.25-.36 19.55 0 1.62-3.428 2.34-1.877 3.97 1.12 1.91 4.8.36 6.675.65.938.18 1.768.57 2.634 0 1.695-1.19.144-2.89.324-4.58.145-1.48-1.73-5.67 4.005-2.09 3.175 1.98 5.628 5.26 9.344 6.13 2.237.39 6.35 1.19 7.973-1.16 1.37-2.27 2.418-4.3 1.876-7.11-.577-.9-.83-1.99-1.984-1.48zM204.2 244.5c-.866 1.84-2.994 2.02-4.834 1.84-1.624-.793-.18-5.628-.866-6.89-.397-.94-.18-2.562.397-3.464 1.732-.65 4.4-.758 5.34 1.443.577 1.44.65 5.7-.037 7.07m-.613-139.7c-1.155-1.37-8.118.79-9.49 1.44-3.462 2.41-1.514 6.85-.865 10.06l-.324 9.99c-.505 3.32-1.48 6.46-2.67 9.52 1.624 1.58 4.113-.08 6.025-.69 1.227-.98 3.14-.87 3.572-2.46-.072-.9-1.155-.65-1.696-.98-.4-.65-.98-1.16-.8-2.02.07-2.1 1.91-3.32 3.35-4.58 1.62-.65 7.72-3.97 9.49-2.71.93.76 1.44 1.59 1.51 2.74.47 1.62-3.97 3.86-.58 4.83 3.39.97 8.19-3.5 11.51-4.76l.14-.65c-2.89-2.67-2.38-.62-4.62-3.93 0 0-11.29-13.82-14.58-15.84zm2.092 14.57c-1.05.54-6.89 3.64-8.01 2.74-.98-2.42-1.59-8.66-.15-11.29 3.21-1.48 6.38 4.44 8.15 5.95.39.72.39 1.95 0 2.59m-33.19 18.4c-1.34-.33-2.75.07-3.61 1.12-.65 1.12-.58 2.67-.4 3.97-.4 1.44-1.3 2.95-2.92 3.35-1.45 0-4.59-.18-4.59-.18 1.15-3.39 1.3-8.59-1.63-11.4-2.1-2.24-4.01-3.86-7.18-3.25-3.54-.07-6.93 1.22-8.66 4.44-2.78 2.67-6.6 4.69-9.35 7.29-.58.79.18 1.66.72 2.09 2.67-.58 4.62 1.19 6.53 2.56 2.49 3.14 5.48 7.57 8.04 10.71 2.23 2.02-.8 4.91 1.55 6.97.54.54 1.62.61 2.23.29l7.72-7.76c.57-1.37-.4-3.18-2.13-2.46-.98-.11-2.17-.51-2.39-1.81 3.68-2.17 8.95-.8 12.99-2.42 2.49-1.12 5.05-3.53 5.7-6.28.39-2.67 0-5.74-2.67-7.25zM152.6 149.2c-2.49 0-5.49-6.39-7.65-7.36.14-.976 2.23-3.07 3.1-3.43 3.79-2.705 7 2.706 7.32 5.52.32 1.696-1.88 4.33-2.78 5.27"/>
  <path fill="#bf1f32" fill-rule="evenodd" d="M229.222 32.435c-4.834-.087-9.13 2.708-11.594 6.875-.72 2.634-2.49 6.542 0 9.03.866 1.192 2.255 1.514 3.625 1.19 1.985-.218 2.507-2.498 3.625-3.69.794-.83 2.017-.643 3.063-.5 1.92.506 3.98 2.277 4.66 4.19.9 2.67-1.21 4.762-2.9 6.53-1.51 1.37-4.01 1.23-6 .906-6.71-4.04-13.97-10.257-22.59-6.468-3.61 1.767-8.22 5.42-8.22 9.75 1.88 3.066 4.74-.073 7.16 0 3.97-.397 7.73.327 10.25 3.25.8 2.236-.3 4.588-2 6.03-2.41 1.12-5.05 1.714-7.72 2.22-3.1.54-6.29.973-9.21 1.875-4.83.974-9.08 3.42-13.62 5.187-8.37 4.51-17.64 6.78-25.43 12.625-5.48 3.5-10.39 8.387-15.87 12.03-4.36 3.645-9.25 6.754-13.22 10.94-.57.576-1.12 1.224-1.62 1.874-3.14 4.18-6.57 7.55-10.43 11.12-1.91 2.96-5.56 5.17-7.22 8.34-.03.1-.12.21-.12.28-2.52 4.76-6.7 8.69-9.37 13.34-1.84 2.56-3.55 5.11-5.25 7.75-3.28 5.15-6.26 10.43-8.78 15.9-1.98 4.33-3.74 8.79-5.19 13.37-.03.18-.11.41-.18.59-.79 4.36-2.36 8.42-3.37 12.75-.57 2.56-.97 5.21-.9 8.06-2.05 2.96-1.85 6.91-2.25 10.59-.25.87-.47 1.78-.65 2.69-.9 4.47-1 9.34-1.25 14.03.29 2.37.42 4.8.53 7.25v.03c.25 6.92.15 13.93 2.6 19.87.03.47.11.96.19 1.43h6.44c-.26-.98-.56-1.9-.85-2.91-.4-1.7-1.12-4.13.5-5.5 2.24-1.37 4.15 3.97 6.56 1.81 1.55-2.17 5.35-5.03 6-2.28.76 3.1 1.88 6.38 2.31 8.87.18 1.01.24 1.88.1 2.56-.72 2.81 3.02 10.27 3.34 12.9l1.56 5.91 2.44 9.09c2.13 6.86 5.51 13.21 7.56 20.07 3.65 10.46 11.87 19.07 18.22 28.34 5.16 7.65 12.83 14.11 19.5 20.97 3.11 2.23 6.15 4.57 9.25 6.84 7.4 5.41 15.03 10.35 23.72 12.62 8.88 3.31 18.29 5.15 27.56 7.5 11.91 2.67 24.79 3.16 37.38 4.28l.31.37c-3.86 1.48-3.92 8.72-9.19 6.16-5.37-1.77-9.29-3.97-14.59-6.06-2.52.18-7.09-1.43-8.28 1.28-.65 1.55-1.3 3.33-.72 5.09.4.79 1.35 1.23 2.22.9.9-1.37 2.95-.41 4.25-.12.54.32.6 1.29.31 1.87-4.15 2.82-9.2.27-13.78.35-6.13-1.95-12.81-2.41-18.47-5.41-3.79-1.19-7.33-2.97-11.19-3.87-8.33-4.44-16.85-8.21-24.75-13.44-5.34-3.25-10.71-7.13-15.69-11.53-5.55-4.94-10.62-10.55-14.37-16.69-9.89-12.23-17.51-25.38-23.78-39.09-1.51-4.76-4.56-9.02-6.18-13.78-2.24-5.09-3.98-10.37-5.53-15.75h-7.6c2.09 7.58 4.65 15.02 7.47 22.38 3.64 5.81 4.82 12.65 8.22 18.53 9.46 15.15 18.78 30.19 30.28 44.4.08.07.12.15.16.22 5.16 6.71 12.41 10.26 18.22 16 8.55 5.63 17.57 10.19 26.59 14.62 5.23 2.56 10.81 4.21 16.47 5.91 7.29 3.65 16.16 3.46 23.88 5.91l25.66.03c-3.47-3.53-8.13-6.93-10-8.87.07-1.04.72-1.04 1.65-1.43 4.04 0 13.99 6.19 17.09 2.9.97-.9 1.73-2.92 3.25-2.59 2.16 3.72 6.8 2.5 10.15 2.03 1.48-.15 4.49-1.86 5.97-2.22.25.36.59.85.34 1.25-2.89 1.8-5.81 5.18-7.94 8.93-1.84 3.28-3.12 6.83-3.16 9.75.47 4.22 1.92 8.02 3.87 11.56 2.16 3.96 4.89 7.55 7.53 10.87.47.72 2.09 1.1 1.44 2.22-1.95.65-5.88-2.58-7.5-3.63-4.58-2.31-8.89-8.55-16-4.65-1.59.9-2.6 1.52-4.19 2.56-.9.54-4.78 4.02-5.94 3.62l3.41-5.97c.44-1.7 1.08-3.37 1.69-5.03.98-2.6 1.99-5.15 2.35-8.03.4-2.82 1.22-6.19-.65-9-.72-1.41-1.93-2.84-3.37-4.28H205.8c.11 0 .2.09.35.12 4.98.61 10.74.28 15.47 1.43 2.34 2.17 5.91 2.34 7.25 5.63.68 1.55.82 3.62.31 5.28-.94 2.92-1.63 5.92-2.53 8.85-1.05 3.32-2.35 6.56-4.63 9.37-2.42 3.14-5.98 4.53-9.44 5.5-5.05 1.52-6.87-2.22-10.875 2.03-.43.98.158 1.83.88 2.41 4.297 2.02 5.67 1.37 10.72 1.44 3.25.58 6.927.39 10.318.47 3.065-1.45 6.544-1.67 9.47-3.22 3.06-1.16 7.71-5.3 11.28-4.91l9.72 4.97c9.41 2.64 13.55 1.96 20.65 1.57 2.887-.36 4.98-2.8 6.53-5.22.147-1.12.647-2.85-.435-3.72-1.26-1.44-2.81.15-4.436-.25-5.16-1.12-10.78-1.52-14.317-6.47-1.05-1.23-2.07-2.57-2.97-3.97-2.92-4.58-4.58-9.98-2.594-15.32 1.7-2.92 5.24-2.94 8.38-3.15 4.11-1.19 8.45-1.98 12.75-2.84 6.85-1.44 13.71-2.97 19.84-6.22 8.44-2.24 16.16-6.18 24.06-9.72 6.85-4.04 13.69-7.98 20.22-12.56 5.55-3.97 10.41-9.06 15.28-14.19 3.32-3.5 6.59-6.98 10.09-10.16 3.21-4.19 6.52-8.46 10.13-12.5 5.41-7.25 10.76-14.75 14.44-22.72 2.67-4.58 5.33-9.17 7.5-14 4.76-7.97 7.4-16.92 9.78-25.94h-6.34c-.69 1.92-1.35 3.87-2 5.79-4.12 10.49-8.2 20.95-14.41 30.62-5.23 10.64-12.49 20.39-19.31 30.31-4.62 5.96-11.09 10.45-16 15.75-.83 1.01-1.63 1.95-2.5 2.85-6.57 6.68-14.73 10.39-22.12 15.44-10.72 6.13-21.67 11.7-33.25 15.81-6.68 3.57-14.52 4.36-21.63 7.03-1.77.22-3.87.31-4.84-1.28-.36-.83-.75-1.96-.06-2.75 2.16-1.77 5.76-1.45 7.06-4.84.25-2.2-1.55-2.7-3.31-3.6-3.24-1.12-6.44.7-9.65 1.03-3.72 1.22-6.93 2.96-11.41 1.59-1.4-.97-2.66-1.95-3.75-3.25l.1-.62c3.39.61 6.68-.57 10.25-.5 6.17.43 11.59-1.9 17.91-1.5 10.14-.58 19.37-3.21 27.78-7.97 8.77-3.9 17.32-8.39 25.22-14.56.02 0 .03-.02.06-.03h.06c4.69-2.92 8.91-6.95 13.53-10.16 9.38-10.79 21.94-19.83 29.19-31.84 7.9-10.07 13.14-21.28 17.65-32.72 1.84-3.35 3.11-6.94 4.19-10.62 1.58-5.26 2.77-10.58 4.75-15.62.87-.61 1.55-3.23 1.91-5.72.36-2.02.56-3.97.6-4.69.07-.97.01-2.02.66-2.81 1.52-.72 3.06 1.09 4.75 1.34 1.66.21 3.53-1.12 4.75-.5.9 1.32-.7 4.63-1.18 6.65-.01.02-.03.04-.03.07-.1.29-.16.55-.16.75-.68 7.21-2.62 13.93-4.78 20.53l6.34.03c.33-1.19.65-2.37.94-3.56 1.37-5.81 2.31-11.8 3.28-17.75l-2.81-.03 2.81-.04c.51-3.1 1.01-6.18 1.63-9.25 1.19-3.86 1.22-7.9 1.4-12.09.04-1.33.11-2.66.22-4.03-.22-5.8-.61-11.56-1.22-17.25-.65-5.88-1.57-11.62-2.9-17.25-.33-1.37-.64-2.76-1-4.09-1.26-4.59-2.89-8.98-4.66-13.35-1.77-4.47-3.68-8.86-5.41-13.37-.25-.69-.53-1.38-.78-2.07-3.03-4.26-4.44-9.22-6.75-13.88-.29-.65-.61-1.29-.97-1.9-1.77-2.89-1.72-6.68-4.28-9.35-.79-3.32-3.7-5.9-5.69-8.72-.61-.43-1.12-.9-1.62-1.37l-6.28-.03c3.06 4.15 5.81 8.5 8.62 12.72 1.3 2.89 2.75 5.77 4.16 8.66 1.12 2.24 2.18 4.47 3.16 6.81 1.88 2.92 3.44 5.98 4.84 9.12 1.84 4.11 3.48 8.32 5.32 12.43.11.29.21.61.32.94 1.37 4.37 2.66 8.84 3.78 13.35 1.12 4.58 2.1 9.29 2.75 14.09.43 1.91.82 4.47 1.22 7.25.98 7.22 1.56 15.53 1.56 15.53s-2.41-1.93-4.03-1.75c-1.7.18-5.79 2.42-5.97 2.09.07-4.11-.17-8.46-1-12.5-.47-1.05-.64-2.18-.75-3.37-.21-1.84-.26-3.76-1.09-5.31-1.41-5.38-2.78-10.77-4.44-16.03-1.41-4.59-3.04-9.05-5.1-13.35-.22-.44-.41-.82-.59-1.25-1.4-4.29-3.85-8.13-5.93-12.13-.01-.01 0-.03 0-.03-.11-.21-.21-.39-.32-.6-1.73-5.34-4.26-10.44-7.19-15.31-.39-.68-.81-1.37-1.25-2.06-2.41-2.6-3.79-5.547-5.59-8.47-3.32-3.46-5.68-7.31-8.78-10.81h-6.22l6.22-.03c-.58-.61-1.14-1.2-1.75-1.78-3.75-2.347-6.23-6.787-10.34-8.627-4.91-2.99-9.16-7.48-13.82-10.91-1.99-1.44-4.08-2.69-6.32-3.59-7.9-4.22-16.01-7.84-23.66-12.5-4.69-2.2-9.52-3.8-14.5-5.25-.58-.39-.97-1.14-.5-1.72 1.84-1.26 4.22-1.42 6.06-2.68 1.84-2.13 4.39-3.52 5.69-5.94 6.93 2.92 13.58 6.46 20.25 10.03 8.44 3.28 16.57 7.54 23.97 13.34 3.83 2.2 7.11 5.176 10.28 8.31h7.91c-3-2.74-6.07-5.42-9.1-8.12-3.68-1.81-6.67-5.41-10.31-7.5-4.4-1.45-8.03-4.75-12.22-6.66-6.1-3.32-11.98-6.97-18.44-9.53-1.91-1.19-4.18-1.64-6.09-2.97-4.62-2.06-8.8-4.95-13.78-6.07-2.6-.83-5.44.81-7.75-.56-.14-.4-.24-.85-.28-1.25-.4-3.14 1.77-5.82 2.34-8.81 2.6-4.33 8.25-1.54 11.78-4.06 1.23-1.01 1.11-2.89.97-4.19-2.42-3.07-5.34-5.54-9.35-5.03-6.13.94-11.17 4.1-15.93 8.22-2.78 2.23-5.27-.97-7.94-1.47-2.31-.65-3.87-3.22-4.09-5.56 0-2.56 2.76-4.18 4.56-5.62 3.9-3.32 9.39-1.84 13.75-.47 1.59-.29 2.87-2.08 3.19-3.59.32-1.95-.06-4.04-1.22-5.63-1.73-1.046-3.59-1.92-5.69-2.25-6.85-.54-14.6-1.46-20.15 2.47-2.82 1.37-4.74 5.17-8.32 4.88-3.36-2.67-7.41-3.38-10.88-5.66l-5.56-2.31c-.71-.13-1.4-.206-2.09-.22zm124.688 81.97c3.03 2.993 5.993 6.132 9.312 8.874 4.546 3.6 8.234 7.89 11.625 12.43h6.28c-2.704-2.67-4.34-6.12-7.624-8.72-3.39-4.55-7.466-8.63-11.687-12.57l-7.906-.03zM82.035 285.09c-2.057-7.07-3.735-14.24-5.72-21.31l-6.437-.064c1.083 7.324 2.646 14.417 4.594 21.344l7.563.03zM268.597 37.53c2.57-.064 4.775.14 5.406.843 1.227 1.443-.92 1.32-4.312 1.5-3.35.18-13.44 3.85-13.62 15.937-.11 7.83 1.85 12.8 3.72 15.938 1.01 1.695 2.04 2.867 2.69 3.625 1.77 2.128 5.24 6.546 1.6 5.5-5.05-1.48-10.47-5.73-13.5-9.157-1.44-1.623-2.39-3.107-2.47-3.937-.07.83-1.15 2.3-2.81 3.96-3.43 3.46-9.3 7.82-13.12 9.12-3.57 1.19.51-4.12 2.32-6.25.57-.65 1.31-1.6 2.13-2.88h.03c.01-.01 0-.03 0-.03 1.77-2.89 3.64-7.63 3.54-15.91-.18-12.09-8.11-14.82-11.5-15-3.35-.18-5.73-.31-4.5-1.75 1.26-1.41 6.92-1.59 11.03-.69 4.08.86 12.91 8.62 12.91 8.62s8.86-7.76 12.97-8.63c2.04-.45 4.96-.78 7.53-.85zm18.03 18.25l.19.31v.345c-4.042 2.742-8.323 5.115-8.72 10.094-.108 1.69-.02 3.45.125 5.21.505 4.4 1.814 8.87 3.438 12.37 1.046.79 2.25 1.77 3.656 1.15.54-.26 1.166-.25 1.562-.97-.324-2.35-1.44-4.37-2.343-6.53 0-.65.754-.84 1.187-.91 2.526-.18 4.06 1.85 6.406 2.03.29.21.162 2.63-.343 4.19-.072 1.44-2.394 1.69-3.188 2.81-.83 1.04-1.857 1.37-3.156 1.37-4.69-.4-7.75-4.26-10.31-7.97l-2.15-7.56-.22-.69c-1.55-1.52-3.93-.38-5.84-1.03-1.55-.58-3.63-.71-4.25-2.66-.25-1.19-.62-2.94.75-3.41l1.19-1c.15-.72 1.81-.73 2.78-.66 2.28-.18 2.77 3.47 5.25 2.75 2.82.21 3.51-4.43 5.6-5.47 4.58-3.65 5.59-2.44 8.41-3.81zm-71.842 3.5c2.206-.025 7.587 2.108 8.218 3.686 0 2.345-.407 5.194 1.938 6.313 1.45.46 3.07-1.46 3.72.56.11 1.01-.65 1.54-1.4 1.9l-.78.34c-1.26.5-2.5-.06-3.62-.35-.75-.22-1.39-.33-1.97 0-.47.25-.86.72-1.18 1.59-.39 5.16-4.88 10.65-9.97 12.59-2.81.43-6.46 1.7-9.09-.06-1.94-1.92-2.67-4.52-2.09-7.19.4-2.96 3.6-3.4 5.88-3.94 1.01-.11 2.56-.31 3.06.81.87 3.64-6.96 3.85-2.78 7.31 3.5.25 6.23-2.23 8.5-4.72 1.19-1.73 2.01-3.99 2.44-6.41.73-4.08.32-8.63-1.59-12.31.16-.1.44-.16.75-.16zm17.03.25c.465-.04.958.02 1.438.155l.72.78c.252 1.48.274 4.003-.845 5.158-1.443 1.118-4.145.73-6.093-.063-.65-.65-.41-1.836-.157-2.594 1.114-1.612 2.926-3.267 4.938-3.437zm14.095 20.405c1.55 0 4.336 2.507 5.562 3.156 3.825 2.49 12.178 2.52 16.688 3.57.216.07.218.34.218.6-1.19 1.19-8.222-.8-9.593-.4-12.16-2.05-24.5.59-36.188 2.75-10.138 3.18-21.102 4.42-30.844 8.54-7.504 2.6-14.445 6.62-21.625 10.16-4.4 1.55-8.485 3.78-12.562 6.13h-.03c-5.16 3-10.21 6.16-15.657 8.47-5.34 3.68-10.02 8.11-14.32 12.88-6.02 6.71-11.24 14.14-16.25 21.35h-.03c-1.12 1.59-2.23 3.19-3.35 4.78-2.78 3.43-4.76 7.19-6.35 11.16-1.77 4.33-3.04 8.87-4.38 13.38-.51 1.63-.96 3.23-1.5 4.78-.47 2.93-1.08 5.72-1.66 8.57-.98 4.47-1.94 9-2.41 13.69-.51 2.53-1 5.1-1.5 7.66-.69 3.72-1.38 7.48-2.1 11.16-1.37.87-2.6-.78-3.97-1.25-1.3-1.37-2.81-3.22-4.91-2.25-1.37.32-2.82.65-3.72 1.88-.54.15-1.05-.18-1.19-.72.11-2.99.38-5.92.78-8.81.79-5.66 2.04-11.18 2.9-16.84.43-1.48.8-3.02 1.12-4.5.61-2.78 1.14-5.57 1.72-8.31l1.87-5.03 2.62-6.94c1.26-2.09 2.39-4.27 3.47-6.44 2.63-5.45 4.98-11.03 8.84-15.94.43-.61.9-1.21 1.4-1.75 3.68-6.6 9.4-12.01 13.4-18.47.36-.4.71-.76 1.03-1.16 5.48-6.24 12.3-11.45 17.31-17.91 1.51-1.01 2.99-2.18 4.44-3.4 1.22-1.01 2.4-2.05 3.59-3.06l15.31-11.97c5.16-3.46 10.72-6.07 15.88-9.53 4.19-2.09 8.87-3.01 13.13-5.03 1.63-.4 3.8-.55 5.1.5 3.61 4.91 8.95 9.44 15.37 8 3.79-1.12 7.81-2.03 10.88-5.09.97-.94 4.41-3.99 5.78-4.31 1.77-.18 4.44 1.82 6.06 2.22 5.23-.4 6.99.44 11.75-1.66 2.85-1.44 5.42-2.29 7.84-4.53zm5.312 11.97c10.23-.1 19.82 1.777 29.188 3.874 3.788 1.37 7.493 3 11.28 4.37 5.485 3.06 11.373 5.49 17 8.37 3.86 1.4 7.434 3.53 10.97 5.87.613.39 1.136.79 1.75 1.18 8.298 3.82 14.173 12.46 21.75 17.9 1.01.72 1.968 1.45 2.906 2.25h.03c6.406 5.48 11.146 12.36 17.376 18.62l.47 1.37.905 1.34 3.844 5.65c1.27 3.5 2.98 6.82 4.35 10.28.47 1.26.95 2.51 1.31 3.81 1.63 3.07 2.97 6.31 4.13 9.56 1.63 4.47 3.07 8.98 4.91 13.34.44.93.82 1.88 1.28 2.78 1.05 5.16 4.25 9.45 4.5 14.93-.36 3.25-3.92 2.76-6.34 3.62-.43.15-.8.31-1.12.56-3.82.32-7.8.27-11.37.81-3.93-.87-7.72.47-11.65 0l-.5-.47c0-.33-.06-.62-.09-.91h-5.62c-.03.33-.11.65-.18.97-1.22 1.77-3.6 1.38-5.37 1.13-1.29-.07-2.27-.86-3.5-1.19l-5.28-.41c-.43-.15-.82-.32-1.18-.53h-.07c-2.06-1.2-3.5-3.43-5.68-4.5-1.77-.54-3.54-1.62-4.84-3.07-3.28-.51-5.79-2.87-8.78-4.09-2.96-1.77-6.19-3-9.22-4.44-2.74-2.46-5.98-3.56-8.94-5.25h-.06c-.23-.13-.43-.25-.63-.38-4.04-.79-7.83-2.17-11.37-4.19-3.28-.4-6.1-1.96-9.35-2.5-1.08 0-2.42-.23-2.56 1.06.33 3.47 3.85 2.7 6.19 3.82 1.88.18 3.68 1.32 5.41 2.19l6.19.03h-6.19c.79.36 1.55.69 2.34.87 4.19 1.37 8.36 2.43 12 5.06 2.74.98 4.86 3.57 7.56 4.69 4.8 3.25 11.11 2.33 15.22 7.09 1.45 1.66 3.19 2.62 4.85 3.63 1.01.62 2 1.27 2.9 2.1.47 1.04-.78.91-1.25 1.12-3.71-.54-7.65-.64-11.62-.75-2.23-.79-4.43-1.97-7.03-1.97-.32-.18-.67-.35-1.03-.5-6.09-3.14-11.53-7.45-16.9-12.03-5.59-1.05-9.72-5.53-14.37-8.81-.29-.15-.55-.36-.84-.5-3.68-2.1-6.99-5.04-11-6.63-.68-.54-1.52-1.5-.87-2.41.57-1.48 1.38-2.87 2.03-4.31.43-1.01.79-2.01.93-3.09 1.3-1.7 2.83.06 4.1.31 4 1.26 8.33 1.77 12.41 2.78 1.33.33 2.67.75 3.96 1.25 7.26 2.09 15.38 2.27 22.6 4.69 5.59.87 10.72 3.05 16.35 4.09 4.26 1.12 8.59 2.18 13.06 2.97.15.11.33.2.47.35 2.06 1.55 2.28 4.12 2.57 6.5-.36.83-1.11 1.58-2.16 1.25-7.9-1.51-14.67-5.58-22.28-7.75-.07-.04-.17-.06-.28-.09-6.06-2.09-12.27-3.87-18.4-5.81-5.23-1.26-10.71-1.76-15.44-4.25-1.3-.47-2.98-.33-4.1.25-.65.32-.97 1.2-.5 1.78 2.85 2.49 7.01 1.67 10 3.65 4.47 1.62 9.06 2.92 13.56 4.47.47.14.91.32 1.35.5l2.44.31c1.84 2.31 5.04 1.27 7.31 2.5 4.04 1.37 8.36 1.76 11.72 4.5 5.27.97 9.95 3.13 15 4.25 2.81 2.02 6.01 3.78 8.5 6.12.47.87.46 2.08.31 3.13l5.63.03c-.36-5.19-.87-10.41-3.72-14.59-.9-2.2-1.6-4.52-2.43-6.75-.9-2.42-1.92-4.75-3.44-6.88-.65-2.27-1.74-4.41-3-6.47-1.33-2.23-2.89-4.44-4.19-6.75-2.05-2.16-4.11-4.36-6.09-6.62 0-.01.01-.03 0-.04 0 0-.02.01-.03 0-1.83-2.19-3.57-4.38-5.19-6.72-3.42-2.67-5.95-6.3-9.09-9.18-1.19-1.08-2.46-2.11-3.91-2.9-4.69-4.08-10.06-6.75-15.21-9.81-4.69-2.67-9.99-3.53-14.5-6.35-1.77-1.12-3.73-1.77-5.78-2.31-2.67-.68-5.4-1.26-7.81-2.53-6.64-1.62-13.5-2.83-20.5-3.62l-19.91.06c-6.86.65-13.36 1.94-19.81 3.56l-7.75 1.03c-1.59.43-3.14.92-4.69 1.5h35.19c-.07-.36-.11-.7.03-1.06.57-.72 1.62-.66 2.34-.66.86.5 1.88.99 2.53 1.75.17.24.36.5.44.75.1 2.34-1.59 6.12 1.15 7.31 1.04-.07 1.84-.88 2.09-1.78l.16-4.56.84-1.75 1.15-2.31c.9-.47 2.35-.19 2.56 1 .08.47.09.88.13 1.31h5.25c.36-.54.69-1.26 1.41-1.4.9-.07 1.6.61 1.96 1.41.03.07.06.15.06.22-.4 4.26-2.15 7.88-3.59 11.78-.5.29-.58.79-1.15.72-1.77-4.62 1.47-8.1 1.22-12.5l.09-.19-5.25-.03c.07 3.1-.58 5.91-1.38 8.65-1.23 1.51.4 4.06-1.88 5-2.56.9-5.79.8-8.53.15l-.78-.88c-.68-3.93-.42-8.13-.56-12.03-.11-.25-.24-.59-.31-.87l-35.19-.03c-7.97 2.96-15.17 7.79-22.53 12.12-3.9 2.53-7.54 6.08-11.22 9.25-1.12.97-2.22 1.92-3.34 2.78-4.47 4.11-9.37 8.46-13.34 13.15-.83.97-1.65 1.98-2.4 3.03-2.34 2.31-4.74 4.84-5.72 7.87-.68.83-1.3 1.64-1.87 2.47-1.87 2.88-3.11 6.02-5.06 8.87-.69 1.47-1.3 2.95-1.84 4.46-2.52 6.71-3.97 13.91-6.53 20.62-.21.36-.45.58-.78.69l32.41.03c-.15-.07-.29-.12-.44-.15-.72-.5-.22-1.46 0-2 7.04-5.66 15.72-7.28 23.44-11.25 4.91-1.19 8.88-4.7 13.72-6.25 1.33-.43 2.59-1.04 3.75-1.69 3.21-1.84 5.98-4.23 9.19-5.75 1.66-.76-.13-3.47-1.5-2.97-6.03 2.28-11.48 5.94-17.29 8.72-1.87.87-3.8 1.7-5.78 2.31-7.14 2.75-14.24 5.63-21.09 9.13-5.48 2.24-10.46 6.37-16.84 5.47-.79-.47-1.39-1.3-.81-2.09 5.63-4.91 13.07-5.95 19.53-9.16 2.06-.83 7.47-3.13 13.56-5.65 9.38-3.94 20.38-8.47 23.66-9.63.94-.87 6.03-2.49 7.69-3.72.18-.14.34-.27.41-.37-.32-1.23-3.54-.42-6.28.37-1.73.5-3.36.98-3.91.9-5.09 1.05-30.31 10.26-35 12.28-.18.04-.38.09-.59.16-5.7 1.55-11.04 4.5-17.28 4.75-.86-.4-2.16-.98-2.34-2.1-.11-1.05.13-1.9.53-2.66.36-.65.88-1.206 1.34-1.78 2.71-.72 4.98-2.568 7.72-3.47 8.52-.29 26.24-5.606 35.69-8.09.86-.257 1.62-.418 2.34-.598 1.22-1.84 16.82-1.67 16.03-5.31-.25-1.05-30.39 3.6-33.34 4.5-2.23.5-4.53.97-6.84 1.4-4.47.83-9.09 1.442-13.81 1.88-1.26-.47-2.8-.31-4.03-.85.11-.36.2-.745.31-1.03.8-1.95 2.25-2.73 3.88-4.53 1.91-2.24 44.93-1.93 45.72-5.5 1.44-2.24-42.08.99-38.22-3.127l.22-.22c3.36-3.21 9.74-1.98 14.47-1.9l21.47.72c3.75 0 6.38.8 10.32 0 .79-.79 2.13.06 2.09-1.53 0-1.95-4.98-.61-7.47-1.87-6.02-.26-11.99-1.5-17.87-1.07-5.16.4-9.97-.99-15.06-1.25-.54-.32-1.63-.89-.87-1.68 4.55-4.69 25.92-.57 30.038-.75.5-.148.81-.97 1.06-1.44-.145-1.19-13.31-2.89-17.78-5.16-1.3-.65-1.85-1.34-1.13-2.1 3.93-3.97 10.83-.87 17.22 2.09 2.27 1.05 4.49 2.1 6.438 2.79l3.32 1.34c2.63 1.7 5.94 1.97 8.68 3.63 1.55 3.17-1.68 5.23-2.15 8.19-.11.54-.12 1.16.06 1.81-.36 3.93-.25 7.92.69 11.56 1.04 3.93 3.1 7.47 6.78 10.03 2.05 1.08 4.07 2.26 6.12 3.31 2.42 1.224 4.95 2.28 7.69 2.72 2.56-.15 5.31.31 7.66-.41 1.37 1.05 3.63-.49 4.5 1.32.32 2.56 1.69 4.654 2.59 7-.72 3.823 1.13 7 1.06 10.72 0 .4-.05.85-.12 1.28-.4 1.19-1.65 1.06-2.63 1.31-1.4 0-2.05-1.44-2.56-2.59-.07-.21-.17-.44-.28-.65-1.01-3.79.24-7.64.82-11.25-.18-1.37-.95-2.913-2.5-3.31-1.08-.18-2.32.14-2.72 1.22-.51 2.1-1.31 4.91.31 6.75.217 1.84-.38 3.29-.562 4.91.18.72.28 1.55.28 2.34 0 1.52-.39 3.02-1.65 3.85-1.12 0-2.93.34-3.47-1.03-.79-.83-.92-1.8-.78-2.81.14-1.12.6-2.25.78-3.22 1.3-3.07 1.12-6.79 2.1-10 .07-.974-.72-1.863-1.62-2.19-1.45-.14-2.88.1-3.53 1.47-1.63 2.166-.32 5.105-.97 7.595-.98 1.84-1.08 4.25-1.66 6.34-.47 1.62-1.26 3.02-3.1 3.78-2.345.25-4.4-.07-6.53-.72-.47-.4-.42-1.31-.095-1.78.32-.44.61-.85.94-1.29h-6.16c-.29.4-.53.79-.78 1.22-1.7 2.64-5.11.86-7.6 1.44-.83 0-.578-1.11-.5-1.68.14-.33.29-.65.47-.97 1.58-3.14 4.6-5.19 7.09-7.97 1.88-2.81 3.94-5.01 5.56-7.97 1.12-.72 1.76-2.02 1.69-3.47 0-.97-.2-.78-.85-1.5-.47-.11-.89-.29-1.25-.44-.47-.22-.874-.32-1.34 0-.11.07-.27.2-.38.34-1.84 2.31-3.5 4.81-4.87 7.407-3.43 4.77-7.9 9.16-11.94 13.6-.54.62-1.09 1.18-1.6 1.75-3.86 2.03-9.19 1.63-13.59 1.16-.76-.43-1.16-1.31-.66-2 .47-.29.905-.62 1.374-.9 7.9-5.374 14.95-12.83 22.82-18.31 1.31-1.91 2.81-2.37 3.65-3.03h.06c.47-.398.74-.86.59-1.69-1.05-1.08-2.31-1.48-2.81-.65-.93.83-1.9 1.59-3.06 2.35-1.23.83-2.6 1.67-4.19 2.72-8.84 7.11-18.95 11.31-28.22 17.44-.94.47-1.95.86-3 1.19-4.47 1.32-9.79 1.4-14.19 0h-32.5c-1.01.39-2.435-.19-3.41.25-3.97.79-8.27.26-12.31.15-1.84-.035-3.66-.15-5.467-.41-1.91-.25-3.82-.62-5.66-1.12-1.12-1.45-2.08-2.93-1.68-4.91-.18-5.52 1.08-10.51 2.59-15.31 1.408-4.44 3.03-8.76 3.97-13.35 0-.07.034-.09.034-.12.79-4.69 2.78-8.99 4.69-13.25.258-.58.47-1.12.72-1.66 2.638-4.9 5.52-9.7 8.88-14.28 2.17-2.95 4.527-5.85 7.16-8.59 3.32-3.86 5.55-8.68 9.66-11.75.47-.32.94-.67 1.41-1h-4.66l4.655-.03c6.097-4.29 11.92-9.26 18.593-12.18 3.53-2.53 7.23-4.7 10.87-6.97 1.443-.72 2.926-1.44 4.406-2.16 5.73-2.74 11.59-5.34 17.43-7.9 3.28-2.096 7.32-2.81 10.53-5.16 12.81-5.3 27.48-6.09 41.41-8.685 3.32.58 5.82-.86 9-.72.68-.02 1.38-.02 2.06-.03zM222.41 221.09c3.03-4.184 6.465-8.193 8.593-12.81 1.12-2.022-.956-3.212-1.28-4.907-.65-.578-1.474-.99-2.376-.844-1.84 2.2-2.393 4.95-3.656 7.37-1.91 3.89-4.98 7.44-7.43 11.15l6.16.03zm44.968-85.217c1.135-.06 2.052.402 3.094.75l-.125.968c-2.2 2.35-4.162 4.79-5.75 7.35-.288.83.106 1.6.72 2.25.468.15 1.155.53 1.624.1 2.96-3.14 4.92-10.07 10.66-8.37.72.58 1.7.9 2.1 1.88.26 1.66-1.52 1.51-2.5 2.16-4.11 4.51-9.04 7.67-13.37 12.03-1.22.54-2.04-.58-2.9-1.15-3.53-3.93-.25-9.03.72-13.03 1.59-1.77 2.19-5.17 5.25-4.84.18-.03.34-.05.5-.06zm-38 .218c.902.15 1.947 0 2.344.97-.902 3.94-.17 8.29.875 11.97-.47 1.45-2.242 2.04-3.47 2.69-2.813.51-3.387-2.96-5.624-3.93-2.49-2.49-4.193-5.57-7.187-7.59-.325-.57-.144-1.35 0-2 .974-1.12 2.348-1.38 3.72-1.06l1.217.82c2.165 3.07 3.37 6.9 6.688 9.03.73.29 1.86.03 2.04-.87.4-1.51-1.3-2.11-1.62-3.34-.39-1.84-1.94-4.17-.25-5.94.4-.32.89-.57 1.28-.72zm-21.125 4.19c2.904.16 4.244 3.9 6.875 4.75 4.33 2.31 5.628 7.27 9.344 10.16l-.062.82c-.397.29-.764.7-1.125 1.1-1.732 1.92-3.357 4.39-6.063 3.35-2.056-1.08-4.027-2.4-6.156-3.34-1.443-.68-2.96-1.17-4.656-1.28-4.185-2.88-8.988-4.35-13.75-5.93-.722-.25-.385-1.04-.313-1.44 1.263-2.02 3.19-.11 4.813-.18 2.164 1.37 4.917 1.48 7.406 2.1 3.39 2.28 7.397 2.92 10.97 4.69.72 0 1.282-.58 1.5-1.12.18-.97-.53-1.69-1.25-2.12-2.022 0-3.245-1.85-5.158-2.03-2.2-1.91-4.628-3.19-6.937-4.81-.57-.54-.76-1.61-.18-2.18.83-1.12 2.03-2.21 3.47-2.28.24-.07.47-.13.69-.16.21-.02.4-.04.6-.03zm78.063 4.41c1.958-.02 3.98.41 6.094 1.47l1.312 1.28c.072 2.56-3.338 1.85-4.78 3.22-4.944 1.84-9.698 4.24-14.532 6.44-.54.22-1.048.44-1.625.69-.47.22-.534.87-.282 1.38.758.87 1.86.7 2.907.85 2.092-1.04 4.273-1.97 6.437-2.9 3.86-1.62 7.743-3.19 11.53-5.21 6.604-2.34 13.713.01 18.908 4.13 0 .29.377.74.125 1.06-.108 0-.236.03-.344.03-4.005.73-7.926 1.66-11.75 2.85l-8.188.5c-3.535-.18-7.154.16-10.437.88-4.36.26-7.83 2.6-11.84 3.53-2.45-.79-1.02-4.1-2.72-5.68-.25-.76-.16-1.45.16-2.06h.03c.22-.47.54-.88.94-1.28 5.08-5.04 11.07-11.04 18.07-11.12zm-41.5 10.1c.477 0 .96-.01 1.437 0 2.29.07 4.56.39 6.657.88 1.01.36 2.03.86 2.968 1.44 1.01.58 1.97 1.26 2.907 1.94 2.092 1.12 3.92 3.13 5.687 4.75.758.58.452 1.72.344 2.44-1.19 1.37-4.332 1.52-3.72 3.94.398.91.576 1.87.72 2.85l26.125.03c4.55-.14 9.05-.18 13.63 0 1.95.08 3.96.2 5.91.38l6.22-.34c.65 0 1.35-.03 2.03-.03 2.96-.11 5.99-.25 8.91-.03h5.28l-5.28.03c1.84.11 3.69.43 5.35 1 .54.65 1.84 1.39 1.63 2.44-6.13.9-13.49 1.75-19.84.38-4.11.26-7.99-.14-12.22.25-3.1.87-6.91-2.26-8.97 1.13-.18.8.16 1.95 1.13 2.1 5.49.72 11.2 1.12 17 1.19 2.82-.61 5.89-.12 8.85-.12 7.04.14 15.51-2.44 20.34 4.09.15.33.32.62.5.94 1.27 2.24 2.66 4.46 2.91 7.13-.21.72-1.03 1.16-1.75 1.16-3.68-.57-7.09-2.1-10.62-3-5.23-.83-9.83-3.22-15.31-3.22-2.89-.28-5.49-1.26-8.13-2.06-1.95-.58-3.93-1.08-6.06-1.19-3.78-1.19-7.7-2.07-12-2.21-5.88-1.55-12.8-1.12-16.81-6.53-.32-1.3.28-2.43 1.5-2.75 5.41-.22 10.65-.51 15.85-.69h-26.12c.25 1.26.47 2.57 1.16 3.66 1.05.33 2.9-.07 2.97 1.63 0 2.89-.39 5.61-1.4 8.1-1.01 2.42-2.48 4.62-4.68 6.56-2.67 2.31-6.34 2.08-9.63 2.91-7.83 1.84-15.06-.65-20.87-5.16-2.16-.93-3.61-2.5-4.62-4.31-1.22-2.16-1.89-4.76-2.69-7-.18-2.27.16-4.39.81-6.37.79-2.45 2.03-4.73 3.22-7 2.23-3.28 5.06-6.84 8.56-8.94.25-.18.49-.32.78-.46 2.76-1.24 6.07-1.8 9.41-1.84zm70.5 5.97c1.174-.01 2.276.18 3.25.94 2.13 1.37 4.83 2.84 4.47 5.69-2.346 1.77-5.803 2.17-8.69 1.6-13.095-.39-25.547.79-38.5.97l-5.655.38c-.83-.39-1-1.18-.75-1.9 2.67.14 4.3-2.03 6.79-2.28 1.77-.9 4.11-.39 6.1-.97l9.66-1.19 6.25-.25c3.72-.72 7.32-1.61 11.03-2.4 1.97.12 4.11-.54 6.07-.56zm-73.563 4.81c-.47.08-.872.58-1.125.97-.793 1.95 1.07 3.62 1.72 5.31.14.39.21.74.28 1.16.002.01-.002.02 0 .03.392 1.69.507 3.48 1.188 5.1.613 0 1.276-.01 1.78-.4.326-1.58 1.203-3.1 1.564-4.68.216-.97.22-1.95-.25-3.03-1.047-1.88-2.487-4.69-5.157-4.44zm-9.78.07c-1.812-.02-3.57.28-5.032 1.25-.32.47-.41 1.36.1 1.75.72.58 1.91.49 2.81.35 1.95.72 2.03 2.87 3.25 4.07.07.11.18.18.28.25.8.29 1.67.26 2.32-.25.15-.11.27-.23.38-.41.65-2.02.28-4.3-1.31-5.75l-.97-1.12c-.6-.07-1.21-.12-1.81-.13zm21.468 1.56c-.17.01-.34.02-.53.07-1.55.4-2.99 1.6-3.25 3.22-.21.76-.32 1.77-.03 2.57l8.6-.03c0-1.73-.27-3.31-1.53-4.5-1.01-.72-2-1.38-3.25-1.31zm-3.81 5.85c.11.32.28.63.53.84 1.59 1.84 1.61-1.39 3.38-.59 2.28.51.68 3.32 2.6 3.72 1.37-.79 1.92-2.42 2.1-3.94v-.03h-8.59zm-21.5-2.53c-.75.07-1.57.43-2.06.63-.11.62-.42 1.26-.78 1.91-.94 1.66-2.18 3.36-.37 5.09 2.2.51 2.26-2.24 3.13-3.47.15-.57.64-1.08 1.03-1.62.36-.43.65-.88.69-1.5-.19-.88-.87-1.1-1.62-1.03zm37.13 25.22c2.1.07 3.24 2.76 5 3.63.4.15.79.23 1.19.41 5.09 1.99 8.91 6.72 13.82 9.32 4.69 3.32 10.3 4.63 14.6 9.03 1.34.98 2.66 2.07 4.03 3 1.01.69 2.02 1.28 3.1 1.75-.32.65-1.31.41-2 .66-3.21-.32-6.69-.05-9.68-1.03-1.04-.39-2.05-.87-3.06-1.37-3.14-1.62-6.08-3.65-8.97-5.75-6.06-4.69-10.82-11.15-17.03-15.59-.14-.14-.32-.23-.5-.34-.86-.47-1.59-1.52-1.59-2.56.08-.58.59-.98 1.13-1.12zm-5.34 3.85c.25.01.44.09.6.19.98.58 1.01 2.35 2.57 2.5 3.21 2.63 6.47 6.02 9.53 9.34 2.82 2.64 4.98 5.7 7.25 8.44.11.33.22.7.22 1.06.04.22.01.38-.06.57-1.26.87-2.75 1.21-4.37 1.28-1.37 0-2.87.17-3.84-.87-.25-.33-.56-.65-.78-.97h-7.09c-.36.86-1 1.82-2.12 1.75-1.51-.22-3.14-.47-4.16-1.75-.01-.01.01-.03 0-.03h-.03c-.13-.17-.21-.36-.31-.56-1.19-4.47-2.69-9-2.94-13.91-.61-1.51-1.57-3-1.5-4.59 1.12-.9 2.18.54 2.72 1.37 2.6 5.88 8.82 10.31 8.5 17.31-.04.11-.08.27-.16.38l7.1.03c-4.9-6.45-8.2-13.48-12.53-20.12-.21-.57.13-1.03.57-1.21.21-.11.37-.12.59-.16.1-.02.19-.03.28-.03zm124.75 27.35c1.37.15 2.74.57 3.78 1.44 1.92 3.25 1.71 7.44 2.04 11.38-.03.9-.01 1.77.07 2.66v.03c.37 4.97 1.81 9.52 1.13 14.63-.54 1.37-2.17 1.95-3.47 2.34-2.74.8-5.45-.26-8.37.07-8.8.33-17.61 1.64-26.31.85-4.04.4-8.74.07-12.75.72-3.93 1.3-8.69.37-12.87 1.09-3.97-.65-7.87.34-11.87-.06-6.27-.9-13.34-.64-19.65.16-10.53-.79-21.37-.14-32.15-.47-6.02-.9-12.79.2-19.25.13-9.81-.72-19.56.65-29.16 0-15.8-.39-32.06.01-47.94-.25-6.78.19-12.81-2.06-19.84-1.09-10.78-.86-22.24-.41-32.31-3.15-4.18.4-8.85.18-12.97.25-1.12-.07-1.46-1.37-1.72-2.28-.79-4.33-2.63-8.53-3.5-12.93-.65-3.21-.78-6.51.38-9.93.65-1.3 1.95-2.65 3.32-2.94 10.79.08 21.85-.58 32.82-.18 2.24-.97 4.75.27 7.13-.31 7.97-1.12 15.82.51 23.97.25 7.5-1.37 14.18 2.02 21.69 1.69 6.5-2.2 14.7-.97 21.63-.75 4.04 0 8.17-1.28 12.03-.09 4.26.58 8.87.28 12.88-.59 8.08.4 16.06-.5 24.06-.75 2.24-.4 4.27.56 6.5.09 6.39-.65 12.46 0 18.63-.9 10.32.72 21.35 0 31.6.97 3.14-.65 6.68-.06 9.82-.06 14.9-1.23 30.85-1.16 46-1.16 4.76-.72 9.91-.2 14.75-.78zM78.32 237.35c1.61-.057 3.59.103 4.56.563 1.12.322 2.79 2.7 3.62 4.47.44 1.01.61 1.82.25 1.965l-2.68 3.63c-1.19 1.12-3.97 1.01-5.81.69-1.298.07-1.756-1.48-2.406-2.342-.36-.54-.757-2.384-.937-3.935-.144-.97-.23-1.82-.156-2.19.4-.65 1.41-2.57 2.13-2.72.41-.06.9-.1 1.44-.12zm326.13 3.94c1.348.03 2.708.424 3.75 1.092.29.18.5.408.75.625l.535 2.19c.65 1.515-.16 3.007-1.062 4.125-1.333 1.19-2.88 2.21-4.72 1.812-1.91-.143-3.304-2.014-4.28-3.53-.323-.9.768-4.46 1.345-5.18 0 0-.004-.03.03-.03.97-.793 2.31-1.125 3.65-1.093zm-28.16 25.464l10.06.188c1.52 1.37.23 3.654-.06 5.314-1.045 4.294-2.373 8.48-3.31 12.844-.145.73-.3 1.44-.407 2.16-1.95 5.05-3.46 10.28-5.63 15.22-2.74 5.23-4.106 11.06-7.75 15.97-4.185 6.13-7.83 12.478-13.06 18.03l-6.5 7.317c-6.135 4.04-11.025 10.66-17.16 14.845-3.533 2.525-6.553 5.79-10.342 7.81-2.16 1.336-4.36 2.67-6.56 3.97-6.13 3.68-12.34 7.284-18.65 10.53l-13.43 4.626-3.87.877-33.03 3.314c-4.11.79-8.08-.43-12.15-.5-5.59-.98-11.38-1.26-16.9-2.41-18.94-2.6-37.35-6.62-53.4-16.44-2.13-1.34-4.28-2.73-6.37-4.28-8.84-6.14-17.7-13.53-24.62-21.97-5.3-5.56-9.69-11.81-14.12-17.91-4.51-4.62-6.02-10.58-9.09-15.81-2.84-8.18-5.49-16.48-6.69-25.35-.07-.68-.14-1.32-.21-1.93-.79-3.97-2.11-7.71-2.44-11.78.79-3.9 5.06-1.96 7.91-2.29 2.57 0 4.66-1.25 7.25-1.25 4.33.54 10.87-1.89 12.82 3.59 1.19 4.83 3.34 9.29 5.75 13.65 2.56 4.65 5.43 9.17 7.85 13.94 4.3 7.9 11.84 14.55 17.5 21.65 4.37 4.33 9.28 8.13 13.53 12.25 12.99 10.64 28.47 15.14 43.69 20.37 8.37 2.42 17.25 3.47 26.35 4.12 8.37.14 16.13-1.32 23.85-2.69 3.25.47 5.59-1.35 8.41-2 6.5-.62 11.65-4.68 17.78-6.63 6.79-3.14 13.22-7.32 20-10.53 8.05-5.81 13.87-14.51 21.19-21.44 3.25-6.14 9.18-11.05 11.6-17.5 1.66-4.08 4.21-7.71 6.16-11.57.9-1.69 1.61-3.38 2.19-5.15 1.73-3.79 2.54-7.91 5.06-11.38 5.16-1.81 11.25-1.31 16.91-1.81zm-157.623 3.188c3.653.01 7.25 1.68 9.53 4.657 1.517.73 2.155-1.03 3.346-1.21 2.52-.8 5.03-1.15 7.37.15.94 1.22 2.16 2.03 3.78 1.78 2.89-.07 4.99-2.17 7.66-3 4.11-.54 9.193-1.18 12.873.84 1.948 2.23 1.85 5.31 2.5 8.12.18.83.17 1.85-.406 2.47-2.094.97-1.564-1.22-5.064-2.41 0 0-5.727-2.49-8-3.43-4.076-1.88-9.02-.31-13.53-.57-6.026 1.63-13.226 2.13-18.313 6.31-.54.47-1.09.96-1.59 1.43-7.794 7.25-11.67 16.6-12.28 27.03l-1.47 10.09c-3.14 3.53-3.57 8.37-6.78 11.68-4.765.65-8.214-2.82-12-5.09-2.49-2.35-2.19-6.42-1-9.35 2.523-6.75 8.105-12.24 10.34-19.1 3.067-4.95 4.75-10.34 7.78-15.29h-6.092c-2.67 5.81-5.32 11.69-8.53 17.31-2.6 3.28-3.3 7.39-5.72 10.78-2.2 2.24-2.25 6.68-6.22 7-6.06-1.84-11.22-6.92-15.37-11.9-1.15-5.48 2.64-9.76 5.13-14.09 2.57-2.96 4.85-6.03 7.19-9.1 2.42-3.25 4.87-6.46 7.72-9.53 5.16-4.98 13.26-6.06 20-3.78.65.47.81 1.37.81 2.09-.39 2.81-2.58 4.91-3.37 7.66-.54 1.19-1.08 2.37-1.62 3.53l6.1.03c.4-.65.79-1.26 1.22-1.88 2.49-4.37 4.44-9.29 9.13-12.25 1.56-.71 3.25-1.04 4.91-1.03zm114.907.626c3.17-.088 6.33.13 9.44.97l2.97 1.124.66 1.156c.83 4.257-.034 7.926-1.658 11.28-1.73 3.5-4.3 6.64-6.72 9.814-2.92.65-4.94-2.427-6.78-4.375-1.587-1.81-3.042-3.64-4.594-5.44-2.23-2.67-4.62-5.24-7.47-7.44-1.12-1.52-3.04-2.89-2.93-4.91l1.22-.78c5.276-.27 10.6-1.26 15.875-1.4zm-182.22.156c4.34-.058 9.35 1.49 13.41.812l4.38.25c1.766.25 3.68.46 4.905 1.68-.18 2.56-2.4 4.27-3.63 6.47-1.59 1.66-3.08 3.43-4.6 5.16-1.73 1.95-3.48 3.814-5.5 5.44-2.42 1.224-3.86 4.7-7 3.654-2.45-2.56-4.52-5.74-6.03-9.094h-.03c-1.3-2.885-2.15-5.94-2.44-8.936.32-1.77.41-4.214 2.5-4.72 1.23-.513 2.59-.7 4.03-.72zm125.47 2.312c1.74-.09 3.59.74 4.69 2.03 2.2 3.17 3.907 6.6 5.567 10.03 1.01 2.05 2.04 4.13 3.19 6.15 3.47 5.67 5.38 11.97 8.38 17.85 3.57 5.484 6.35 11.28 10.28 16.657.36.72.44 1.43 0 2.19-4 3.86-9.05 5.91-14 8-3.93 1.19-7.82 2.884-12.15 2.81-1.22-.322-2.27-1.25-2.34-2.622-2.6-13.38-2.81-27.84-5.16-41.41-.43-3.13-.58-6.41-.87-9.62-.11-1.58-.34-3.17-.59-4.68-.54-1.95-.39-4.35.22-6.12.76-.81 1.77-1.2 2.81-1.25zm20.82.93c2.63-.01 5.32.2 7.842.38l2.97 1.375c3.21 3.14 6.25 6.28 9.28 9.38h.03c3.5 3.5 7.067 6.99 10.783 10.38 1.98 2.96 5.68 6.44 2.93 10.41-2.85 6.42-9.42 10.85-14.5 15.94-.98.87-2.32 1.2-3.66.88-4.48-7.39-7.85-15.38-11.78-23.03-2.13-3.25-3.17-7.01-4.94-10.4-.69-1.44-1.6-2.82-2.5-4.16-1.63-2.52-3.21-5.05-3.28-8.15.03-1.23 1.07-2.08 2.15-2.65 1.5-.2 3.07-.3 4.65-.31zm-53.908 8.31c4.825-.04 9.52.83 13.813 2.31l.71.5 1.78 1.19c3.46 2.96 8.47 5.56 8.21 10.72 1.62 5.88 2.5 14.17-1.47 19.25-2.35 6.03-6.86 12.97-13.32 15.57-5.81 3.535-18.1 3.843-23.44-.126-8.66-5.05-12.9-24.96-8.57-33.437 1.8-4.33 6.92-9.91 12.37-13.154 2.63-1.59 5.36-2.64 7.81-2.75.69-.05 1.37-.06 2.06-.06zm28.72 39.53c.077-.01.14-.01.218 0 .52.09 1 .75 1 1.32.614 5.95 1.647 11.73 2.188 17.72 0 1.516-1.47 2.41-2.59 3.06-3.35 1.84-7.162 2.236-11.06 2.81-3.86.148-8.233 1.605-11.84-.09-1.3-1.624-.735-3.855.312-5.407 4.04-3.72 9.617-3.54 13.405-7.91 4.04-2.89 5.23-7.23 7.72-10.91.18-.37.42-.55.65-.6zm-63 2.63l3.468 4.25c2.815 6.136 9.286 7.97 14.626 10.53 4.51.726 8.38 2.917 13 3.567 1.11.398.92 1.59 1 2.56-1.3 3.647-6.02 1.436-9.16 1.94-5.16-1.623-10.73-2.034-15.567-4.343-4.366-.9-8.545-2.373-12.19-5.187-.793-.47-.27-1.438-.125-2.16 1.047-3.065 2.16-6.12 3.78-8.936.326-1.042 1.158-2.22 1.158-2.22z"/>
  <path fill="#bf1f32" fill-rule="evenodd" d="M467.172 226.425c-.974-5.268-.866-11.076-1.55-16.307-2.31-18.76-6.28-36.8-13.278-53.576-.974-4.005-2.814-7.577-5.087-10.968-1.118-3.788-3.535-6.927-5.448-10.318l-.51-1.263c-9.02-12.014-14.43-25.543-25.36-36.583-11.55-11.69-22.91-25.218-36.59-34.166-8.81-7.793-18.22-13.854-27.89-19.482-5.34-2.417-10.21-5.556-15.41-8.334-5.23-2.417-10.72-4.33-16.17-6.422-9.13-3.968-19.92-3.968-29.26-7.432-6.32-.72-12.74-.866-18.94-1.768-9.85-.65-19.77-1.046-29.33-.793-7.36-1.37-15.23-.722-22.01 1.37-4.51.073-8.63 1.372-13.06 1.624-7.51-.252-13.53 2.96-20.53 3.752-2.53.57-4.44 2.52-7.11 2.41-5.56 2.59-11.69 3.5-17.64 5.08-4.77.72-8.55 3.86-13.14 5.08-3 3.53-7.76 2.99-10.9 6.2-12.49 5.37-23.27 15.08-35.68 20.71-10.07 8.62-22.08 14.97-29.73 26.15-3.94 3.75-6.46 8.33-10.07 12.19-3.25 3.79-4.36 8.29-7.36 12.16-2.09 5.88-7.14 10.53-9.02 16.45-1.77 1.95-1.66 4.65-3.68 6.53-1.77 4.58-4.44 8.76-6.46 13.2-.8 3.79-3.32 6.75-4.04 10.46-2.49 4.76-4.51 9.77-5.45 15.22-2.35 3.24-2.85 7.18-3.72 11.04-2.2 10.64-5.88 20.81-6.53 32-2.28 8.55-.33 17.24-.9 26.19-1.59 2.74.57 5.48-.33 8.44 1.69 4.76 1.3 10.32 1.95 15.48l.72 1.15c1.12 4.58 1.7 9.31 2.56 14.07 1.23 8.37 4.19 16.05 6.53 24.03 4.04 8.95 6.13 18.69 10 27.71 2.85 5.16 4.61 10.64 8.15 15.55 4.58 9.42 11.18 18.15 16.45 27.42 7 8.44 14.97 16.74 23.02 24.32 10.89 11.18 23.05 19.33 35.61 26.66 10.42 7.32 22.08 11.44 33.3 16.99 6.92 2.41 13.71 5.16 20.71 7.32 6.2.83 11.11 4.76 17.53 5.12 4.8 0 8.41 2.7 13.06 2.7 16.85 1.77 34.35 2.67 51.34.83 8.33-.9 16.81-1.37 24.89-2.74 15.01-1.63 28.97-5.74 42.39-11.15 7.11-4.4 15.01-7.14 22.73-10.07 12.3-6.53 25.04-12.41 36.19-21.9 6.28-3.97 11.76-9.45 17.89-14.11 6.24-8.3 14.39-15.62 21-23.99.5-1.95 1.69-3.65 2.85-5.41 5.55-6.46 9.74-13.53 14.64-20.31 2.27-4.91 6.45-9.02 7.25-14.58 2.02-4.11 10.14-26.66 12.7-33.37 2.09-10 5.27-19.09 6.31-29.48.58-9.85 2.81-19.27 2.27-29.33-.51-7.26.47-14.51.07-21.83zm-8.91 46.216c-.83 1.95-.11 4.12-.65 6.14-1.155 5.88-1.768 11.94-4.185 17.32-3.644 14.11-8.154 27.82-13.89 41.1-3.284 6.39-6.89 12.56-10.932 18.62-5.16 8.3-11.184 16.27-17.03 24.17-1.983 3.14-5.23 4.91-7.647 7.65-3.392 7.18-11.004 11.62-16.74 16.85-6.53 7.58-14.9 10.97-22.152 16.99-8.226 6.93-18.292 9.67-26.987 15.3-4.37 2.67-9.28 3.86-13.39 6.86-3.65.98-6.71 3.14-10.43 3.86-10.03 3.32-21 4.55-31.72 6.21-5.95 1.7-11.84 3.72-18.55 3.72-5.13.58-10.61.94-15.62 1.23-4.12.29-8.3 1.66-12.41.4-4.26-1.48-9.2-.58-13.79-.4-9.28.29-18.51-.5-26.67-3.46-7-1.62-13.46-4.44-20.78-5.41-8.3-3.79-17.39-5.66-25.62-9.74-10.9-4.44-21.69-9.27-31.21-17.17-5.63-4.69-12.3-7.5-17.79-12.91-7.32-5.45-15.48-11.58-20.31-19.56-3.54-2.49-5.81-6.38-7.9-9.81-.79-1.76-3.14-1.3-3.54-3.24-3.93-7.18-8.95-13.85-13.06-20.96-2.16-1.51-2.16-4.15-3.68-6.09-4.69-8.3-9.34-16.52-12.09-25.54-2.74-5.15-3.86-10.85-6.46-16.01-1.37-5.01-2.67-9.99-3.21-15.33-.26-2.35-2.2-3.94-2.93-6.1-2.24-9.85-2.57-20.1-4.04-30.23-.55-4.33-1.84-8.84-1.59-13.53-.65-6.2-.58-12.55.72-18.61-.08-8.94 3.86-16.52 4.9-25.11 2.35-8.98 3.97-18.22 8.3-26.37-.07-3.21 2.49-5.37 2.67-8.55 4.11-8.26 6.21-17.46 11.04-25.51 2.89-7.76 9.09-14.03 11.69-21.93 2.56-5.95 7.5-10.78 10.93-16.34 3.72-3.94 7.29-8.63 11.87-11.37 2.64-2.02 5.05-4.51 7.25-6.85 8.12-4.91 14.79-12.81 23.13-17.39 3.86-1.55 6.67-5.63 10.61-6.85 5.55-3.86 11.54-6.53 17.39-9.52 8.73-3.28 16.3-9.31 25.65-10.93 6.92-1.69 13.78-3.32 20.85-4.44 4.29-1.3 9.02-1.76 13.24-3.32 6.35-.72 12.7-1.84 19.08-2.56 8.95-1.62 18.44-1.77 27.89-2.16 6.67.55 13.27.4 19.8 1.27l11.83 2.02c3.9-.79 7.36.58 10.97.79 11.51 1.23 22.22 4.51 32.33 9.31 5.77 3.21 11.91 5.56 17.86 8.52 12.41 4.37 23.3 12.56 33.84 21.51 4.26 4.44 9.02 8.48 13.71 12.2 9.23 9.02 18.11 18.04 26.77 27.31 3.03 4.33 6.28 8.59 8.91 13.1 4.83 6.78 10.03 13.71 13.38 21.22 7.32 12.88 11.36 27.16 15.15 41.49 7.14 18.5 7.07 39.72 7.47 60.5-1.52 8.94-1.99 18.36-2.31 27.78"/>
  <path fill="#bf1f32" d="M287.975 232.017c.72 1.443-.65 1.407-.397 2.922.18 1.15.613 2.99-.794 3.53-2.742.57-1.948-3.86-4.87-2.67l-4.077.76c-.325 4.98-.145 11.72-.866 16.56.15 2.02 2.64 1.08 2.89 3.1 0 1.04-.03 2.38-1.12 2.45-1.33.11-2.2.5-3.17-.15-2.49.72-5.7 1.15-8.3-.07-.79-.65-.9-1.77-.57-2.64 1.05-1.45 3.32-1.12 3.39-3.07-.07-5.09 1.23-11.55 0-16.27-.9-1.3-3.42-1.16-4.29-.83-2.02.4-1.05 4.51-2.96 4.04l-1.04-1.37-.39-5.92.65-.58c7.51 0 15.48.5 22.73-.4 1.05.07 2.42-.33 3.21.58m70.39 1.04c0 2.09.44 4.51-.32 6.38-.83.61-2.05.07-3.14.07-.61-.44.51-2.35.07-2.82-.79-1.37-2.16-2.49-3.68-2.42-.86.14-4.11 1.91-4.22 2.81.11 5.77 9.53 4.62 11.94 9.09 2.2 4.01 1.19 7.11-1.29 9.85-3.24 3.03-9.34 3.03-13.13 1.19-2.27-.07-4.62 2.49-6.49.25l2.17-3.39c1.37-2.09.94-3.21 2.85-4.84l.76.07c1.01 3.9 1.88 5.67 6.06 5.77 2.78.07 4.55-.43 4.94-1.8.65-.9.18-2.02 0-2.92-2.74-3.86-11.29-3.32-13.24-7.76-.86-3.14-1.15-7.29 1.59-9.56 3.39-2.24 10.68-3.28 14.54-1.12l.62 1.12m-184.97-.76c1.05 1.84.65 4.62.4 6.71-.4 1.12-1.77 1.05-2.81.86-1.77-.54-.72-2.74-2.6-2.96-1.44-.33-3.35-.51-4.47.61-.75.73-.97 3.32-.83 4.3.72 1.3 3.65.61 4.73 1.12 1.7 1.59 1.08 1.55.58 3.86-.4 2.2-2.89 0-4.73.4-1.16 1.37-.8 6.17-.07 7.54 2.89.79 6.75-.4 8.12-1.55 1.41-1.19 1.73-3 3.21-3.46.9 0 1.95.39 2.02 1.37-.97 2.23-.32 5.73-2.67 7.25-6.13 2.49-14-.11-20.78.54-1.19-.4-1.05-1.52-.87-2.49 4.91-4.51 2.96-13.64 3.14-19.77-.18-1.63-2.78-2.96-1.91-4.51l.83-.47c4.26-.33 10.1.58 14.36 0 1.55-.07 3.14 0 4.37.65m73.93 1.04c.14.87.14 1.77-.33 2.49-1.19.4-2.49 1.05-3.35 2.27.54 4.72.11 9.85.03 14.43.9 1.23 2.96.9 3.28 2.67.68 1.55.36 2.78-.76 3.5-2.27 1.04-6.71-.22-9.34-.07-1.55.79-3.54.32-5.12-.33-1.08-.87-1.15-1.55-.5-2.85.8-2.02 3.57-.8 4.3-3 1.69-4.04.32-10.93.9-15.37-.58-1.84-2.89-.29-4.08-1.84-.58-.61-1.84-3.21-.83-3.21 4.73 0 9.45-.72 14.51-.18.69.18 1.09.9 1.3 1.48m-121.22-.62c.15 1.04-.5 1.08-1.55 1.41-.65-.08-1.19.39-1.51.79.33 3.21 1.37 7.4 3.47 9.89 1.23.33 2.02-.97 2.49-1.77l6.42-9.28c-2.49-1.26-1.16-2.74-1.16-2.74 2.67-.4 7-.65 9.02 0 .65.32 3.1-.69 2.45 1.22-.5 1.66-2.56 1.27-3.64 2.85-4.91 6.97-9.56 15.7-13.49 22.15-1.3-.1-3 .33-3.39-1.04l-.11-2.67-8.26-17.89c-.65-.72-1.88-.22-2.6-.8-1.05-.9-.87-1.15-.61-2.45 1.11-1.51 3.28-1.04 4.9-1.62 2.64.33 6.46-.97 7.58 1.95"/>
  <path fill="#bf1f32" fill-rule="evenodd" d="M326.324 253.375c-3.716-6.855-7.973-13.385-10.643-20.637-.46-.974-1.33-2.092-2.48-2.092-1.12.144-3.75.65-4.07 1.84-1.19 7.973-6.02 14.43-9.92 21.286-1.33.974-2.49 2.345-3.93 2.958-.57.577-.29 1.154.15 1.623 3.18-.252 8.23 0 11.58-.144.4-.18 1.12-.4.98-1.05-.14-.72-.79-.98-1.3-1.37-.39-.4-.14-1.01 0-1.37 1.7-4.04 4.62-2.92 7.44-2.6 1.88.65 4.87-.72 5.3 2.74.15 1.01-1.51.25-2.16.57-.83.39-1.48 1.19-1.22 2.23 0 1.04.98 1.01 1.95 1.11 3.54-.51 6.64-.44 10.75-.62 1.66-.04-1.55-3.32-2.38-4.51zm-10.75-5.268c-1.156.974-5.485.83-7.145.722-2.06-.47 1.98-5.45 1.4-6.79.36-1.27.14-3.43 1.69-3.75 1.37 0 1.15 2.31 1.55 3.75.61 1.33 2.78 4.69 2.49 6.06m13.28-122.92c-.55-1.7-1.27-1.55-3.65-1.63-3.43.97-6.46 2.74-8.73 5.88-3.86 2.81-7.69 6.1-12.02 7.79-1.44 1.05-3.03.43-4.58 1.15-.15.47 0 .94.25 1.26 1.52.72 2.89 1.87 4.58 2.27 1.84.72 2.67 3.93 5.09 2.16-.11-1.12-1.23-2.42-.29-3.46 4.22-1.3 5.95.79 9.02 3.21.61.72.79 1.37.18 2.34-1.37.32-2.92.9-4.11-.04-.33 0-.65.39-.65.79.07 2.27 4.04 4.73 5.34 6.03 1.04 2.02 4.36 3.97 6.49 4.4.65-.25 1.22-.97 1.12-1.7-1.44-4.04-2.63-.8-.79-4.73.65-1.23 2.2-18.98 2.92-20.09-.4-3.4-.18-5.67-.18-5.67zm-8.23 13.49c-.22 1.37-5.38-1.7-6.32-2.92-.51-.47 3.42-3.21 3.57-3.72 1.87-1.26 2.13-2.2 4.15-3.18l.32.32c-.14 2.16-1.23 6.42-1.73 9.49"/>
  <path fill="#bf1f32" d="M261.782 99.575c-.144 2.67-.54 5.412-.974 8.082-.144.54-.72.938-1.263.866-1.335-.145-3.138-.145-2.778-5.81-2.56-2.85-6.06-1.37-6.17 1.625-.288 8.658-1.622 9.92-.72 15.802 1.262 1.515 1.262 3.68 3.21 4.834.397.794-.252 1.696-1.046 1.84-2.27.397-4.04-.974-6.2-1.046-2.74-.253-5.59.54-8.08-.325-.79-.397-.47-1.37-.14-1.912 5.63-3.71 4.44-11.07 4.91-17.17-.07-.97-.57-1.95-1.51-2.34-4.72-1.98-3.78 1.55-5.99 2.02-.47.47-1.51.47-1.98 0-1.62-1.12-.57-3.14-.57-4.69.4-1.19.25-3.03 1.77-3.21 6.13-.72 12.66.58 18.69-.4 3.07.47 7.11-.9 8.88 1.84m32 7.29c1.45.51 2.85 1.3 3.86 2.49-.32 3.14-4.43 1.3-5.66 3.72-1.84 5.88-8.66 12.63-3.71 19.09.15.65-.18 1.3-.83 1.45-2.49.11-6.24-3.21-8.33-4.33-2.2-.5-4.76-.39-6.13-2.42.22-2.41 3.39-1.76 4.94-3.14 3.61-1.55 3.9-6.27 5.16-9.34.43-2.27 2.13-4.33 1.62-6.78-1.05-1.26-3.61-1.91-2.49-4.08 1.05-1.87 3.14-.18 4.65-.36 1.34 1.7 5.41 2.74 6.93 3.72m67.97 51.56c3 2.82 4.33 6.53 6.28 9.89.32 1.37 1.55 2.81.5 4.29-1.04 1.45-2.74 1.66-4.47 1.66-.79-.39-.54-1.44-.36-2.05 1.3-4.43-.58-6.96-4.11-7.18-.68 2.31-4.47 1.27-3.42 4.08.83 1.12 2.27 2.6 1.88 4.15.18 1.66-1.51 2.49-2.74 3.1l-1.04-.03c-1.26-1.8-3.07-3.24-3.46-5.26-.32-.39-.97-.72-1.44-.32-.72 1.48-3.36 2.35-2.6 4.44 1.95 1.88 1.81 4.65 4.22 6.21 1.12.32 2.02-.47 3.21-.47 1.7.72 4.37-.32 5.49 1.26.22 1.77-1.84 1.63-2.88 2.2-2.71.98-5.81 2.35-8.62 1.05-3.03-2.67-3.06-6.46-5.91-9.09l-.14-.98c-2.09-2.09-3.86-4.37-6.46-5.41-.72-.4-.54-1.44-.28-2.02 1.27-2.89 3.54.07 5.56-.58 4.19-2.16 8.51-3.71 12.3-6.75 1.59-.25 2.74-1.77 3.61-2.99-.22-1.44-.79-2.89-.29-4.33.65-.43 1.52-.97 2.17-.32 1.7 1.52 1.95 3.68 3.07 5.48m-238.51 8.34c.47 2.49-2.45 4.08-4.08 5.77-1.22 2.35-1.66 6.68-.21 9.16 1.37 2.2 3.14 5.02 5.88 5.27l5.37-.58c.57-1.37 2.02-2.2 1.87-3.93-.4-4.43-4.44.54-5.48-1.62-.18-2.49 1.15-6.09 2.96-7.68 2.64-.5 5.09 1.23 7.29 2.85.94.4 2.56.22 2.82 1.7v1.51c-.83 3.39-1.12 7.25-2.82 10.39-2.27 2.81-4.54 3.75-8.22 5.23-2.16.87-4.83 1.52-6.85.69-3-2.81-8.05-4.25-8.88-8.84-3.53-6.2-.21-15.55 3.43-20.63 1.91-1.05 5.77-2.56 6.93.72"/>
  <path fill="#bf1f32" fill-rule="evenodd" d="M171.693 337.508c-.397-.865-1.37-1.984-2.49-1.84-5.086 2.165-9.596 5.556-15.008 7.108-2.164 1.118-4.257 2.56-6.818 2.958-2.2.722-4.04-.397-6.133-.505-.578.25-.794.83-.902 1.4 3.463 2.56 6.385 6.42 9.344 9.49 1.37-1.23.47-3.47 1.804-4.73 1.515-.65 3.102.29 4.654.72 2.742 1.51 5.953 4.33 5.88 7.79-.252.72-2.164.39-2.814.54-.18.79-1.443.72-.47 1.69l5.16 2.99c2.165 1.37 3.428 4.29 5.845 4.94.974-.18.722-1.48.65-2.28-5.376-10.25 2.922-19.74 1.298-30.31zm-9.344 14.828c-1.59.325-3.97-2.67-5.02-3.968-.51-.47-.65-1.19-.4-1.912 1.95-1.227 5.84-4.98 8.12-5.123l.32.397c-.15 2.67-2.46 8.01-3.03 10.606m180.21-7.792c-4.15-1.082-1.88.83-5.99-.325-3.03-.83-12.49-4.69-15.44-5.63-1.88-.72-4.15-2.6-6.14-.9-1.05 3.13.97 5.62.65 8.94 1.3 4.58 3.5 12.77 1.94 14.39-1.95 2.02-3.14 3.75-1.63 5.66 1.44.5 1.98-.8 3.06-1.45 2.31-1.88 5.26-3 7.07-5.56-.33-1.55-2.35-.51-3.07-1.7-.83-2.28 2.56-3.14 3.68-4.69 1.88-.87 2.85-3.39 5.09-3.39 2.49.83-.15 2.67.1 4.22.14.21.47.72.9.61 3.75-1.77 6.64-5.88 10.1-8.3.18-.65.18-1.45-.36-1.91zm-21.18 8.154c-1.52-1.516-2.53-7.216-2.27-9.308.39-.65 2.09.902 2.56 1.118l5.05 2.273c.36.26 1.33.51 1.41.83-1.59 1.95-4.26 5.81-6.75 5.09"/>
  <path fill="#bf1f32" d="M141.137 303.27l.18 1.444c-1.623 4.51-4.004 13.313-4.293 18.292.36.72 2.96-2.02 3.5-2.345 2.85-1.11 4.69-4.25 7.576-5.05 1.696.58 2.057 1.37 3.14 2.82.865 1.84 3.21 3.54 2.416 5.81-1.948 1.7-2.67-1.84-4.69-1.22-3.932.83-7.07 3.47-10.535 5.56-1.94 2.6-4.83 3.39-7.1 5.49-1.04-.47-3.06.18-3.14-1.52.33-6.06 3.76-12.59 3.21-18.9-.68-.86-6.74 4.51-7.47 4.91-3.14 2.17-1.62 1.99-2.59 5.7-.86.33-1.76-.65-2.41-1.22-.79-1.66-1.12-3.61-2.09-5.23-.86-.86-2.09-1.69-1.69-3.14 4.11.4 4.51.29 8.05-1.08 2.67-1.91 12.92-9.02 12.99-10.13.18-1.01-1.3-1.76-.72-2.7.73-.97 2.1-.76 3-.25 1.19.58 2.24 1.63 2.71 2.82m211.66 3.14c.73.65 1.56 1.52.91 2.42-2.99 1.05-6.38 1.05-9.02 3.07-1.04.97-2.78 1.95-2.92 3.46.97 1.84 3.36 3.97 5.23 3.83 2.49-1.04-.9-4.76 2.64-4.76 2.6.07 3.47.43 4.73 2.45.18.4.58 1.05.18 1.52-1.04.9-3.06-.07-3.53 1.77-.07.9.11 2.85 1.09 3.5.9 1.3 2.49 1.62 3.93 1.3 1.84-.5 2.6-2.49 3.64-3.78 1.26-2.67-1.69-4.37-3.14-6.21-.11-1.04.54-2.02 1.52-2.45 3.53.76 5.7 3.36 8.91 4.73.25 1.05-.33 2.02-.8 2.85-4.9 5.88-8.15 11.22-13.96 16.45-.61.4-1.23 1.34-1.95.94-1.55-1.48 1.95-4 .98-5.3-2.09-2.85-7.68-8.62-12.19-10.39-2.6-.72-3.03.4-4.54 2.24-.9.72-1.98 1.05-2.96.65-1.04-.51-1.01-1.52-.68-2.38.97-2.6 4.15-4.29 5.52-6.6 2.56-4.51 5.63-7.22 8.77-11.58 2.96-1.92 5.01 1.58 7.68 2.31M193.62 350c6.67 2.24 13.2 4.73 20.06 6.68.94.4 1.91 1.12 2.49 1.95.39 2.413-1.55 4.11-2.1 6.28-.65.572-1.55.47-2.2 0-1.77-1.84-1.45-6.35-5.23-5.49-2.67.72-2.88 4.54-4.07 6.56-.79 3.25-3.24 5.95-3.17 9.42.83 1.95 2.09 2.71 3.57 4.15.29.65-.25 1.37-.9 1.62-2.02.15-3.32-1.44-5.16-1.76-3.28-1.22-7.25-1.04-10.243-3.06-.36-.39 0-.86 0-1.3 1.37-.65 2.92-.79 4.29-1.51 3.07-3.64 3.28-8.37 5.48-12.41.4-1.55 1.99-2.74 1.52-4.43-1.12-.974-2.42-1.37-3.86-1.624-2.02 1.3-3.14 3.576-5.01 4.84-.61-.15-1.514-.22-1.77-1.05-.14-3.54 1.23-6.43 2.85-9.28 1.19-.29 2.38.11 3.47.43m54.6 11.24c-.26.94.32 1.7 1.08 2.2.76.47 2.13.61 1.98 1.84.39 5.7.39 10.86-2.89 15.44-1.59 1.7-3.79 2.02-5.92 1.23-5.265-3.14-1.585-8.55-2.78-13.53.18-1.84-.83-4.29.93-5.66.51-.43 1.41-.5 1.59-1.3-.22-.43-.22-1.04-.83-1.294-3.07-.47-6.93.83-10-.04-.72-.18-1.55.22-1.8 1.01-.58.83.25 1.55.93 1.8 1.23-.04 1.84 1.08 2.31 2.02 1.87 6.85-1.63 13.89 1.98 20.2 3.21 2.74 10.35 2.92 14.46 2.057 8.62-4.19 4.22-14.47 7.25-22.01 1.087-.79 2.96-.54 3.39-1.3.47-.83 1.01-1.77.4-2.81-2.882-1.01-6.64-.36-9.56-.43-.97.14-2.053-.37-2.56.57"/>
  <path fill="#bf1f32" fill-rule="evenodd" d="M307.563 366.84c-.793-.722-1.876-1.12-2.994-.794-1.52.397-1.77 2.02-2.17 3.21-.58 1.697-2.49 1.3-4.04 1.552-1.3-.433-5.49-3.03-4.73-4.293 1.69-2.598 3.43-6.602.61-10.066-2.67-5.63-10.07-4.26-14.4-2.49-3.32 2.23-7.25 2.95-10.57 5.05-.33.9.14 1.87.75 2.52 1.22 1.12 2.92-.51 4.33-.4 1.76 1.58 2.41 3.75 3.53 5.7 1.3 3.46 2.74 6.85 3.57 10.57.29 2.09-1.74 4.36.14 5.81 2.02-1.05 4.33-1.55 6.53-2.2 2.31-1.37-1.73-6.57-1.34-8.41.32-.65.94-.98 1.66-.8 1.55 1.04 6.82 3.71 8.62 4.11 5.37 0 8.58.11 11-5.3 0-1.27.72-2.82-.54-3.79zm-18.94-1.37c-.794.83-2.454 1.658-3.5 1.225-1.12-.938-5.087-8.153-3.03-9.163 2.67-.578 5.808-.11 7.25 2.706.614 1.803-.07 3.86-.72 5.23"/>
  <path fill="#bf1f32" d="M168.628 42.283c.072 3.716 2.526 5.664 1.407 8.983-.793.938-.613 1.263-1.912 1.263-.54-.22-1.443.14-1.696-.65-.216-1.59-1.912-3.32-3.39-3.86-1.697-.11-7.216 2.23-8.335 4.25-.577 1.3-.325 2.74.65 3.89 4.654 4.72 10.715.14 15.802-.44 2.056.25 3.932 1.44 5.7 2.85 3.067 3.35 4.834 8.11 3.283 12.62-2.453 4.76-6.927 10.24-12.952 9.67-2.165.65-3.86-2.1-5.556-.4-.08 1.29.32 2.81-1.05 3.31-1.05.22-2.28.14-3.07-.65-1.3-1.88.32-3.86-.18-5.88-.33-2.2-2.13-3.5.61-5.12 3.32-.4 6.53 4.29 9.34 3.32 2.63-.87 4-1.55 5.05-4.4.47-1.3.72-2.82-.18-4.04-.8-.98-1.91-1.63-3.28-1.63-3.39.32-5.49 3.71-9.35 3.06-3.65-.4-7.11-1.62-9.27-5.05-1.77-2.92-3.61-6.46-2.28-10.1 1.12-3.21 3.93-6.03 7.11-7.4 2.23-.83 5.19-1.66 7.54-1.23 2.63-.58 1.55-4.98 5.26-3.29l.72.87M346.36 55.5c1.3 1.26 1.37 3.93 3.714 4.184 1.19.07 2.992-.4 3.316 1.19-1.154 2.59-4.113 3.46-5.95 5.41l-2.78 2.2c-.65.21-1.226-.4-1.37-.9-1.552-3.32 1.587-3.72-.397-6.71-.98-1.37-1.99-3.21-3.79-3.54-1.23-.07-2.24.86-2.82 1.84-2.164 4.11 1.05 7.18 2.02 10.64 1.59 1.95 2.24 4.29 2.89 6.6.97 3.5-.4 6.6-2.89 8.8-3.71 2.813-7.5 3.535-12.262 2.092-2.24-1.3-4.83-2.096-6.67-4.188l-2.56-4.11c-1.55-.434-3.53-.07-4.69-1.48-.47-.866.15-1.84.65-2.56l6.86-7.578c.47-.47 1.51-.4 2.09-.075.79.393.87 1.37 1.12 2.09-.18 2.234-2.67 3.533-2.24 6.06-.32 2.96 2.78 4.652 4.84 6.023 1.34.65 3.54.72 4.91.07 1.77-1.045 2.67-3.065 1.92-4.98-.22-3.79-4.8-5.734-5.38-9.27-.57-3.21-1.76-7.323.58-10.065 3.14-4.69 8.77-5.667 13.93-5.017 1.92.504 3.68 1.62 4.98 3.246M124.33 66.24c.47 2.957-2.527 4.4-.25 7.07 2.56 4.582 8.19 8.37 10.28 13.024 1.37 1.768 2.343 3.97 4.51 4.907 2.343 1.38 5.05-2.3 6.023.98-.98 2.42-4.59 3.68-6.28 5.34-2.49 1.77-5.38 4.22-6.82 6.86-.65.58-1.7 1.05-2.42.44-1.95-2.85 1.95-6.2.5-9.34-.76-2.16-3-3.79-4.15-5.81-2.96-4.97-7.47-9.81-12.56-12.62-1.76-.9-4.25 1.66-5.3-.36.07-1.55 1.626-2.74 2.85-3.54 3.43-2.67 7.326-4.43 10.537-7.75.98-.47 2.75-.47 3.07.83m240.97 13.41c2.237 1.95 2.345 4.69 1.95 7.58-.398 2.93-3.21 4.58-5.88 5.23-2.815 0-6.28 0-7.578-3.06-.977-2.31-.255-5.23 1.296-7.25 1.3-1.37 2.56-2.96 4.25-3.61 2.2-.07 4.253 0 5.95 1.12M95.93 91.71c.577.902.253 2.092-.108 2.994-.866.974-1.84 2.093-3.21 1.515-.975-.4-2.563-2.39-3.537-1.34-.72.65-2.922 5.05-2.345 5.77 1.046.83 3.355 1.98 4.726 1.91 4.258-.58 10.066-5.67 14.973-4.04 2.66 0 10.82 1.55 10.82 9.96-.04 2.49.14 5.3-1.08 7.54-1.84 3.46-4.91 7.72-9.1 8.55-.8-.18-1.84-.25-2.67.07-1.12 1.19-.47 3.39-2.09 4.18-3.07.86-3.61-2.89-4.98-4.58-.98-2.28-1.62-3.43-2.06-5.92.11-.58.68-.61 1.15-.79 5.27-2.1 4.62 5.55 12.73-.47 1.37-1.01 1.62-2.74 1.62-4.51-1.23-1.95-.33-5.52-5.56-4.51-5.23.97-9.13 3.39-13.97 4.33-3.61.25-6.78-1.59-9.2-4.26-1.51-3.07-2.24-7.51-.47-10.72 1.63-2.09 5.52-10.18 7.4-9.06 2.7.9 4.9 1.51 6.92 3.35M69.5 117.6c.974 1.872-1.046 3.243-.65 5.263.83 3.865 4.113 7.256 7.9 8.23 6.28 4.005 11.257 8.37 17.86 11.65.577.4.577 1.23.433 1.77-2.924 3.25-6.676 2.275-10.644 2.347-6.35.11-13.14.33-18.84 2.42 1.91 1.624 3.35 3.97 6.09 4.44 2.27 2.74 5.41 4.04 8.8 3.39 1.51-.07 1.91-2.74 3.6-2.02 1.04.47 1.37 1.695 1.04 2.74-3.07 4.836-4.66 10.248-7.58 15.155-.4.9-1.44 1.442-2.16.65-1.63-1.445.07-3.32-.4-5.16.07-3.97-3.86-5.88-6.53-7.974-4.66-3.14-9.92-5.81-15.8-5.48-1.99-.18-2.89 2.82-5.05 2.02-1.55-.97-.18-2.85.25-4.04 1.91-3.46 3.46-6.31 7.76-7.21 6.24-1.76 13.64-3.35 20.56-3.64 1.22-.07 1.94-.75 2.67-1.62-2.6-2.41-5.56-4.51-8.63-6.31-1.95-1.19-3.14-2.09-5.41-2.49-1.19.62-2.24 2.06-3.79 1.19-.73-.57-1.77-1.04-1.92-2.02-.18-1.12 1.12-1.62 1.34-2.56 2.2-3.97 2.71-8.62 6.57-11.51.97-.07 1.77.18 2.49.8m-25.53 63.11c1.3 1.88 5.23.58 4.62 3.65-1.16 1.63-5.23.11-6.86.69-2.16 1.45-3.39 3.9-3.17 7.04.1 1.23.72 3.21 1.73 3.72 1.87.39 5.77 2.23 7.07.07.07-1.55-.22-6.39.43-6.86 1.62-.43 1.8.5 3.35.4 1.84-.15 4.33 0 3.89.72-1.91 3.43-1.91 5.41-3.79 7.29 0 .47.39.65.72.72 3.86-.33 7.9 2.2 11.43 2.6.72-2.49.8-6.97 1.34-9.6.5-4.15-6.61-5.74-5.16-9.85.72-1.23 2.09-1.12 3.24-.83 2.81 1.23 5.05 1.33 6.96 3.75 2.74 3.68.62 10.78-.94 14.32-2.09 4.33-2.49 17.06-3.21 18.04-.65.46-1.7.64-2.42.18-3.14-2.35-.43-8.45-7.61-8.88-6.1-.4-11.73-2.81-17.86-4.18-3.61-.32-2.74 5.7-6.53 4.11-2.42-3.32 3.36-22.44 4.8-27.53.58-.72.61-.68 1.41-.93 2.49-.32 4.25 1.23 6.53 1.37m-12.4 55.46c5.3 1.45 11.69.47 17.24 1.19 3.39 0 7.57.8 9.59-2.23.32-.83.65-2.34 1.69-2.59.86-.07 2.16-.4 2.89.32l.4.83c-.29 5.05-.72 9.88.43 14.72.07 1.37.14 2.81-1.23 3.5-3.25.61-4.58-4.76-7.58-5.34-5.45-1.52-11.91-.79-17.93-.94-3.72-.25-5.85 2.45-8.19 5.19-.54.4-2.96.22-3.07-1.77-.22-4.54-1.41-7.47-.36-12.52.32-1.58.21-3.89 2.05-4.47 2.27.07 2.02 3.28 4.04 4.11m30.99 31.57c1.19.25 3.07-.25 3.53 1.23-.58 2.75.72 4.19 1.04 6.61 1.12 4.91 5.66 18.37 5.66 20.21-.32.9-1.15 1.88-2.02 2.2-4.36.33-1.94-3.86-6.45-2.89-4.69 1.3-15.37 4.44-20.53 4.51-.83.22-1.95.4-2.02 1.3-.07 1.12.32 3.03-1.12 3.43-1.7.11-2.67-1.69-3.57-2.81-1.77-4.51-5.96-8.55-4.44-13.86.5-1.04 1.55-1.04 2.53-1.12 2.56.15 2.16 4.26 4.9 3.76 2.74-.72 7.32-1.05 10.32-1.34 3.53-2.27 13.46.47 12.73-4.51-1.98-14.21-6.39-10.89-10.97-15.87-1.37-1.52 1.52-1.3 2.24-1.95 3.07-.47 5.41.79 8.16 1.12m360.78 6.74c5.34 3.72 12.16 3.61 18.58 4.73 2.45.26 5.12 2.78 7.29.72.72-1.22 1.15-2.77 2.49-3.57 1.23-.14 2.42.65 2.67 1.77-.51 3.25-2.35 5.81-2.85 8.88-2.17 4.26-3.61 8.95-3.86 14.04-.4.97-.98 2.24-2.17 2.56-3.28.33-6.09-.39-9.02-.97-1.04-.46-2.31-2.7-1.11-2.74 7.47-.07 11.11-9.85 10.5-11.04-.55-1.12-7.11-1.37-9.67-2.2-1.88-.61 1.12 5.59-2.1 6.71-2.75.47-1.12-.47-3.86-.21-.91-.4-1.7-1.12-2.02-2.09-.33-1.11-.08-2.41.86-3.21.5-.32 1.08-.65 1.22-1.3.33-1.19-1.22-1.69-2.34-2.02-3.03-.28-7.87-4.33-9.74-1.51-.87 3.79-2.96 8.66 2.52 14.39.4.44-.11 1.23-.76 1.48l-1.73-.25-6.53-4.51c-1.12-1.48-.47-3.64-.14-5.16 1.11-4.62 2.67-8.87 4.18-13.31.83-1.84 1.3-3.93 3.06-5.23 3.25-.14 2.02 3.1 4.51 4.08m-15.88 37.91l.18 2.49c4.01 4.19 8.77 7.51 13.93 9.35 3.72 3.07 7.9 5.16 12.09 7.25 1.16.73 2.02 1.92 1.44 3.36-3.93 4.55-11.43 2.74-16.92 2.74-.65-.22-3.42-.86-4.11-.68-.79.97 1.37 3.93 1.7 4.83 2.09 4.19 4.51 7.07 6.39 11.37.14.94-.58 1.52-.98 2.13-4.04.43-7-2.81-10.57-4.15-2.2-.87-3.29-2.45-5.31-3.17-4.04-1.33-9.38-6.67-13.06-3.86-1.33 1.05-2.56.18-3.97-.79.18-3.14 2.21-5.95 3.65-8.77 1.51-.83.9-4.29 3.39-3.25 2.56 1.12-.47 4.76 2.45 5.16 2.67 1.19 13.2 6.17 15.33 8.66 1.05.47-8.76-12.7-8.84-15.84.08-1.19 17.93 1.23 18.12.33-.22-1.34-10.47-5.59-11.44-6.17-2.75-.07-5.67-4.33-9.35 1.59-.5.83-2.34.15-2.74-.97.25-1.22 1.3-2.09 1.59-3.28 1.87-3.06.97-7.68 4.76-9.67.97-.1 1.73.55 2.27 1.38M381.53 359c1.23 3.354 5.81 4.29 8.44 7.033 4.44 2.89 7.04 9.78 12.77 9.78 2.1-.07 4.66-1.333 5.78.507.98 2.96-2.56 3.14-4.11 4.51-2.09 2.67-4.84 5.01-6.86 7.4-.61.43-1.44.25-2.02-.148-.94-1.37 1.26-3.32.43-4.76-1.19-2.16-6.35-6.02-8.69-7.21-3.86-2.92-5.34-6.385-9.92-8.26-2.67-.72-5.124 3.1-7.18.144-.11-3.79 4.04-5.52 5.48-8.73 1.69-1.37 2.416-3.57 4.256-4.69 2.38.25.97 3.062 1.62 4.433M116 369.17c.25 3.933 3.533 6.855 7 8.05.36.87-.29 1.77-1.12 2.02-1.77.793-3.935.65-5.955.87-1.88 1.69-2.02 1.08-4.33 1.62-.9.32-1.95 0-2.27-.9v-.94c1.51-1.23 2.52-1.84 3.1-3.97.21-3.47-2.96-6.35-5.85-8.23-1.44-.47-2.707-.29-4.15.432-1.876 1.48-.72 3.36-.18 5.52 1.19 3.14 1.443 5.668 1.73 9.13 0 4.29-.8 8.15-3.936 11.04-2.56 1.447-5.23 3.07-8.55 2.096-2.82.07-4.59-2.56-6.61-4.26-1.84-2.99-3.94-5.73-5.16-8.87.07-2.02 2.34-2.56 3.64-3.54l4.98-1.3c2.41 1.84-1.3 3.07-1.45 4.83-.25 2.59.72 4.76 2.89 6.27 1.95.65 3.79.33 5.48-.61 1.45-1.08.65-2.85.73-4.36-.72-5.88-4.73-11.04-3.14-17.35.65-2.16 1.77-4.4 3.97-5.7 5.7-2.09 11.83.26 16.2 4.04 1.44 1.19 2.31 2.64 2.96 4.12m206.65 35.79c-.51 1.7-3.5 2.17-2.13 4.15 1.37 3.07 1.08 6.6 3.46 9.27 1.22 3.32 2.52 9.82 5.73 12.09 1.77 2.02 3.89-.43 6.31.04.86.65 1.37 1.69 1.26 2.81-.72 2.6-3.75 1.697-5.63 2.74-5.48 2.02-12.12 4.69-17.42 7.038-1.55.54-1.7 3.28-3.83 2.237-2.34-2.232-2.2-5.88-4.26-8.44-.15-.72-.25-1.764.58-2.2 1.33-.47 1.98.977 3.14 1.23 1.59.18 1.73 2.455 3.53 1.73 1.19-1.48 6.17-3.1 6.17-3.1l-2.52-7.576c-.72-.72-1.7-.97-2.67-.72-1.59 1.23-.87 3.46-2.45 4.51-1.01.18-1.55-.94-1.87-1.628-1.37-2.56-1.81-3.65-1.37-6.71 1.69-1.95 3.61.72 5.63.21.9-.65.39-1.84.1-2.67-2.67-1.98-1.88-9.49-6.86-7.39-2.02.79-5.44 1.69-6.09 4.18-.79 1.44-.54 3.86-2.56 4.26-.83.15-1.7-.11-1.95-.9-.32-1.59.65-2.63.76-4.08 0-1.48-1.48-3.9.47-4.62 5.16-2.17 10.96-3 16.09-5.16 1.87-1.05 5.59-3.75 7.79-2.78l.57 1.48"/>
  <path fill="#bf1f32" fill-rule="evenodd" d="M449.46 185.873c-.65-.794-1.444-1.948-2.6-1.948-3.39 1.3-6.457-.614-9.92-.54-1.263-.398-14.18-.903-18.977-3.14-4.366-2.057-5.412-5.556-5.412-5.556-.39-1.45-2.99-2.31-3.46-.91-.58 1.62-.25 4.47.72 6.56 1.45 3.1 1.77 5.26 3 8.12.22.94 1.16 1.26 1.99 1.04.98-.11.69-3.68.47-4.55.4-.8 2.27.58 3.1.32 1.66-.15 2.06.4 3.29 1.33.98 2.27 1.45 5.92 2.02 8.15.07 1.8.72 3.46.54 5.27-.39.86-2.74 2.56-3.78 2.31-1.8-.4-1.98-3.18-3.82-3.18-1.12.29-.9 1.59-1.01 2.56.9 2.09.58 10.97 1.55 13.31.47.86 1.12 2.23 2.42 1.69 3.86-2.53.04-2.74 3.68-5.81 3.9-3.25 18.04-15.55 20.75-17.14 1.3-.65 3.86-3.57 4.91-4.69.65-.9.98-2.2.58-3.25zm-21.54 11.112c-.866.072-1.046-.974-1.335-1.55l-1.226-8.588c2.27-1.587 10.49 1.046 13.81.974 2.67-.07-9.17 7.55-11.26 9.17m-27.41-98.5c-.26-1.37-1.92-1.44-3.14-1.51-8.7 2.42-16.45 7.18-25.08 9.92-2.64 0-5.45.47-7.72-.83-1.05-.15-2.49-1.05-3.47 0-.33 1.15.07 2.2.65 3.06 3.39 2.1 5.52 7.76 9.38 7.76 1.62 0-.62-2.56 2.38-3.97 3.97-1.87 7.39 3.39 9.52 6.35.36 1.3.07 2.78-.58 3.9-.51.97-1.77.14-2.89 0-1.05.07-1.88-1.12-2.6.07-.18.25-.22 1.88-.07 2.02 2.88 1.37 4.76 4.33 6.6 6.86 1.12 1.05 2.13 3.75 3.35 2.89 2.27-1.58.79-2.88 1.08-4.58.61-3.79 4-8.8 5.66-14.18 1.4-5.73 5.99-11.87 6.89-17.75zm-14.87 16.02c-2.35-.07-4.55-2.99-5.59-4.69 1.19-1.62 7.65-4.8 9.34-5.66 1.84-.58-2.31 9.38-3.75 10.36m-15.66 296.09c-1.77-6.78-3.79-13.45-4.91-20.45-.33-2.81-1.05-5.95-.54-8.8.93-1.84 2.74-3.39 2.95-5.55-.29-.79-1.3-1.26-2.24-1.12-2.09 2.28-4.66 3.65-7.33 4.84-1.23 2.1-2.53.98-3.32 3.43.47 1.3 2.09 1.12 3.39 1.3 1.26.22.68 1.66.86 2.57-1.84 3.54-5.63 5.59-8.88 7.36-1.05.15-1.84-.65-2.31-1.44-1.7-1.95-.58-2.23-.79-4.26-.26-.57-.91-.72-1.52-.64-3.1 2.74-7.04 4.01-9.96 7.11-.72.69-2.1.94-1.91 2.24.39 1.05.72 2.28 1.77 3 .9.4 1.98.44 2.81 0 6.35-3.28 10.32 5.81 15.8 8.73 4.04 1.05 9.41 7.8 12.01 7.51 2.13-.22 3.61-1.01 5.08-2.45.61-1.3-.62-2.27-1.01-3.32zm-6.79-4.15c-1.63-.28-7.25-7.25-8.55-7.97-.4-.28-.98-.14-1.19-.72l.07-.79c1.44-1.37 6.67-6.74 7.94-2.63.58 1.55 2.56 9.38 2.88 11.01-.18.58-.58 1.05-1.16 1.12M94.02 342.34c-1.77-3.608-4.04-10.607-6.062-10.463-3.03.18-.072 5.014-2.634 6.53-1.118.72-2.74 1.046-4.112.54-2.995-1.443-2.923-2.705-4.835-6.674-.866-1.732-2.994-3.716-1.3-5.7 1.3-1.155 1.877-3.572 3.97-3.572.866.18.866 1.12 1.19 1.81.506.93.975 2.56 2.49 1.98.577-.15 1.37-.65 1.37-1.37-.468-3.79-3.463-6.42-4.58-10-1.625-1.92-1.047-5.78-4.366-6.03-2.02.9-.61 3.61-1.19 5.41-2.49 3.21-4.43 6.68-7.5 9.74-2.81 3.21-5.16 7-8.44 9.92l-3.24 5.31c-.21 1.19-1.84 3.68-.14 3.86 9.78 1.05 17.72.58 26.59.4 3.54.11 8.05-.98 10.65 2.02 1.05.72 1.26 2.16 2.42 2.56.94.36 1.84.4 2.56-.47.18-2.23-1.77-3.93-2.81-5.81zm-21.61-3.283c-2.49-.073-6.387.18-8.877.25-.54-.323 6.134-6.53 6.278-7 1.77-1.874 2.93 2.023 2.93 2.023s.87 3.355 1.95 4.004c.26.54-1.69.83-2.27.722"/>
  <path fill="#bf1f32" d="M397.974 157.625c-1.913-3.536-2.778-6.314-2.706-8.443.072-2.128 1.912-4.51 2.2-6.385 1.047-2.598 3.572-4.727 5.737-6.567 2.165-1.84 4.762-3.21 7.83-4.076 2.777-.18 5.52-1.443 7.792-1.3 2.273.145 4.365.722 6.277 1.697 1.984 1.01 3.067 2.71 4.907 4.19 5.45 7 6.25 14.76 3.29 16.31l-.86.58-3.24 1.52c-1.26.87-2.2.94-2.7 1.23-.5.29-.9.51-1.11.54-.4.11-.72.11-.97 0-.29-.07-.47-.25-.5-.5-.07-.36.33-1.08 1.12-2.16.4-.54.69-.93.94-1.26 1.08-1.59 2.24-1.91 2.64-3.24.4-1.33.07-3.79-.18-5.01-.47-2.52-2.2-4.65-4.83-5.63-2.63-.97-5.74-.21-9.31.83-4.04 1.16-6.56 2.39-8.55 4.77-2.02 2.38-2.96 5.77-1.91 8.66.22 1.19.58 1.95 1.12 2.35.32 1.95 5.37 7.69 6.35 7.44 1.37.87-1.01 2.42-1.01 2.42-.61.18-9.71-2.85-12.27-7.9M177.4 445.25c-.685-.22-1.48-.65-1.73-1.08-.254-.44-.29-.908-.073-1.45.257-.8 3.07-1.01 3.21-1.05.76-.22 1.77-1.77 3-4.69.25-.58 1.984-6.28 2.67-8.55.108-.22.72-3.79.9-4.26.93-2.6.14-4.3-.44-5.78-.612-1.45-1.694-2.53-4.003-3.36-2.453-.87-3.463-.54-5.05.11-1.624.68-2.85 1.33-3.645 3.57-.22.54-1.84 2.92-1.99 3.35l-4.4 8.22c-1.08 3.645-1.99 5.954-1.59 6.603.18.256.43.54.75.9.72.79 1.77 2.09 1.55 2.708-.22.51-.47.83-.83.98-.36.15-.83.11-1.41-.1l-9.53-4.11c-.61-.26-1.01-.54-1.26-.94-.26-.4-.29-.83-.08-1.37.21-.62.83-.94 1.87-1.01 0 0 2.74.43 3.03.21.29-.18 6.06-11.3 6.06-11.3.07-.25 2.85-5.95 3.17-6.89 1.12-3.1 3.06-5.09 5.77-5.88 2.7-.79 5.55-.69 9.77.86 4.87 1.77 7.72 3.39 9.41 5.92 1.7 2.53 2.2 11.01 1.19 13.1-.43.97-.97 3.35-1.23 3.86l-1.34 6.93c-.14.21-.47 2.2-.57 2.45-.11.25-.58 1.84-.54 2.2.07.32 1.04 1.44 1.04 1.44.79.72 1.04 1.41.83 2.05-.18.47-.47.79-.9.98-.44.18-.9.14-1.45-.04l-12.23-4.61"/>
  <path fill="#bf1f32" fill-rule="evenodd" d="M483.156 220.11c-1.732-9.343-1.732-19.336-5.087-28.03-2.53-14.685-7.83-28.286-12.67-41.96-2.49-5.087-4.19-10.498-7.83-15.008-1.84-3.608-4.11-7-5.7-10.607-3.79-5.015-5.49-10.896-9.2-15.802-4.69-5.015-7.97-10.896-12.3-16.055-4.04-5.808-9.67-10.535-13.79-16.343-3.97-1.876-5.2-6.602-9.13-8.767-1.52-3.03-5.23-3.644-6.86-6.71-4.91-4.186-9.28-9.345-14.51-13.133-7.72-6.602-17.46-8.37-25.08-15.225l-6.43-3.247c-5.63-4.185-12.34-5.88-18.36-9.164-5.16-2.6-10.5-4.59-15.62-7-4.26-1.23-8.23-3.32-12.74-4.04-1.23 0-2.02-1.12-3.25-.98-10.39.11-19.09-3.86-28.83-5.16-8.8-.22-17.42-1.77-26.05-2.89-3.86.47-7.72-.26-11.43.54-7 .5-14.11.65-20.85 1.62-10.18 1.77-20.75 2.6-29.77 6.93-10.03 3.39-20.13 6.85-30.05 10.5-2.09 1.26-4.4 1.98-6.82 2.49-6.06 1.62-10.9 5.88-16.96 7.32-6.35 3.86-13.53 5.48-19.16 10.97-6.46 2.67-12.34 6.6-18.04 11.18-6.67 2.99-12.59 8.22-18.4 13.13-5.87 6.86-13.12 12.01-19 18.54-1.98 3.06-4.73 5.95-6.49 9.09-3 3.57-5.81 7.11-8.41 10.82-3.68 3.53-6.03 7.79-8.63 11.9-2.89 5.88-6.93 11.19-9.92 16.99-1.26 4.29-3.54 8.15-5.05 12.34-2.99 4.9-4.76 10.32-6.85 15.62-1.7 5.88-4.26 11.36-5.49 17.39-.65 2.13-2.34 3.75-1.84 6.24-1.76 4.51-2.09 9.67-2.99 14.5C3.31 205.96.5 212.93.5 220.83c0 6.6-.47 13.45-.54 19.88.29 11.14 0 22.47 1.37 33.44.87 4.76.65 9.67 2.24 14.11 3.21 12.41 5.626 25.03 10.316 36.79 2.35 8.73 6.607 16.59 9.74 25 2.6 4.51 6.35 8.44 8.01 13.35 3.36 5.34 5.63 11.29 10.14 16.05.65 1.7 2.96 2.74 3.14 4.69 2.49 2.71 4.26 5.95 6.42 9.02 3.18 3.07 5.417 6.75 8.66 9.74.72 2.74 3.936 4.19 5.127 6.6 2.67 2.49 6.13 4.26 7.934 7.58 4.87 1.94 7.72 6.78 12.05 9.92 10.644 9.23 22.08 16.81 34.02 23.34 5.38 2.17 10.32 5.56 15.624 7.9 7.04 3.57 14.43 6.21 21.54 9.42 6.42.65 11.91 4.04 18.51 3.89 2.49.145 4.44 1.59 7.04 1.59 8.77 1.95 17.39 4.186 26.23 5.88 14.03.51 28.72 2.924 42.72.58 19.19.396 37.01-2.815 54.26-7.325 7.94-3 16.34-4.947 24.39-7.83 9.52-5.23 19.91-8.19 29.33-13.6 2.49-1.05 4.58-2.927 7.18-3.65 6.93-3.39 12.88-9.27 19.55-13.385 9.45-5.95 18.54-13.2 27.16-20.6 7.51-8.402 15.34-17.1 21.07-26.44 7.07-8.694 13.42-17.82 18.19-27.635.98-.72 1.23-2.02 1.81-2.996.29-2.49 1.66-4.51 2.71-6.68 2.35-7.25 6.86-13.6 9.35-20.85 1.84-3.97 2.82-8.3 3.79-12.67 2.75-7.65 5.34-15.3 7.11-23.38 2.38-14.5 5.56-28.75 7-43.76 1.77-9.31-.25-19.16-.54-28.76zm-6.278 38.605c-1.407 12.952-3.536 26.3-6.53 38.495-.974 9.452-6.747 16.127-8.298 25.327-2.273 5.34-3.03 12.266-6.386 17.21-3.932 7.575-7.576 13.89-11.04 21.537-4.906 9.38-25.074 41.815-44.41 54.334-7.506 5.05-14.757 10.426-21.9 16.38l-9.453 5.772c-4.61.72-7.61 5.267-11.68 7.323-3.03 2.02-6.53 2.923-9.78 4.474-9.77 5.123-19.52 10.318-30.27 13.17-8.08 3.39-17.1 4.544-25.14 8.044-10.57 1.63-21.07 3.29-31.82 4.41-11-.18-21.9 2.28-32.5.29-6.24-1.59-13.56-1.26-20.06-1.51-2.96.25-5.05-1.37-7.75-1.69-7.32-1.3-14.07-3.89-21.72-4.47-8.87-1.69-16.99-5.05-25.47-7.54-1.8-1.15-3.93-1.15-5.88-1.98-8.44-5.12-17.89-8.04-26.08-13.67l-1.66-.72c-6.42-5.3-13.35-9.31-20.16-13.6-7.58-6.1-15.87-10.89-23.2-17.89-4.9-4.07-8.55-9.45-12.8-14.07-3.53-2.77-5.99-6.45-9.27-9.59-5.99-6.6-9.16-14.65-15.04-21.43-4.79-6.35-6.89-13.74-10.71-20.49-2.13-5.3-5.12-10.17-7-15.55-3.28-8.48-4.91-17.57-8.66-25.8-1.37-5.84-3.39-11.47-4.04-17.68-1.23-9.09-3.61-18.11-2.45-27.81-.72-5.45-1.23-11.72-.4-17.1-.83-2.09.15-4.36.4-6.42-.83-4.47 1.12-8.87-.07-13.24 0-7.83 2.67-14.18 2.42-22.15.9-4.98 2.06-9.99 2.46-15.22 1.48-2.85 1.95-6.09 3.43-8.94.43-5.44 3.1-9.92 4.4-14.97 2.02-6.02 4.62-11.8 7.98-17.28 3.32-6.06 6.1-12.41 8.55-18.94 4.8-6.42 7.87-13.6 13.82-19.7 2.99-5.59 7.65-10.71 11.87-15.76 1.8-4.98 6.93-7.76 10.42-11.73 7.37-7.46 15.45-13.3 24-18.03 5.34-3.17 10.25-7.39 15.69-10.32.9-1.48 2.67-1.4 3.9-2.38 8.95-5.59 17.83-11.61 27.5-15.62 12.09-6.75 25.4-10.14 38.5-14.47 4.73-.97 9.45-2.05 13.93-3.75 4.22-.25 7.83-1.95 11.73-2.78 4.08-1.04 8.55-1.04 12.45-2.41 8.95-1.37 17.68.8 26.77.65 3.68.33 6.93-.75 10.68-.32 2.2.15 4.47.07 6.49-.32 7.11-.18 13.49 1.19 20.13 2.35 3.18 1.01 6.35 1.74 9.67 2.46 4.33.14 7.76 2.67 11.98 3.32 4.22 1.55 8.95 1.88 13.28 3.28 10.57 4.37 21.47 8.12 31.79 13.24 7.58 5.56 16.38 7.97 23.67 14.25 6.14 3.75 12.05 8.12 17.93 12.63 3.03 1.95 5.24 5.34 8.05 7.65 3.75 3.82 7.76 7.32 11.47 11.04 3.43 2.96 5.96 6.6 9.56 9.31 2.93 3.57 5.49 7.29 8.59 10.9 6.39 8.62 12.63 17.25 17.57 26.45 4.84 5.78 7.83 12.31 10.79 18.8 3.32 9.85 8.37 19.05 10.57 29.37 2.2 8.63 5.84 16.6 7.54 25.47 1.48 7.18 2.06 14.76 2.6 22.23.9 6.1 1.4 13.1.43 19.3.14 6.02.32 12.52-1.3 17.97"/>
  <path fill="#bf1f32" fill-rule="evenodd" d="M456.204 224.152c-2.633-3.968-3.03 2.02-4.076 3.464-2.815 1.046-6.17 1.876-9.2 1.695-5.953-1.4-10.39 1.45-16.452.04-1.046-.61-3.066.69-3.572-.75-.72-1.22-1.767-2.74-3.32-2.52-.432.15-.83.44-.83 1.05 1.12 4.66.723 11.58 1.156 16.71-.072 3.18 6.17 11.66 8.154 13.13 3.283 2.38 7.287 2.49 11.76 2.49 3.933 0 7.29-2.99 10.464-5.73l3.283-4.51c.73-1.23.47-2.81 1.38-3.97.51-3.1 1.37-6.93 1.37-10.86 0-3.06.72-7.21-.11-10.21zm-6.566 21.503c-4.437 6.097-12.555 4.87-18.94 4.15-1.985-.976-4.33-2.49-5.088-4.944-.252-1.15-.793-4.76-.036-5.8 2.85-1.69 6.89-1.01 10.174-.57 2.85.36 13.096-1.44 14.323-.11-.1 1.3 0 5.96-.43 7.29"/>
</svg>
